<?xml version="1.0" encoding="utf-8"?>
<!-- Generator: Adobe Illustrator 14.0.0, SVG Export Plug-In  -->
<!DOCTYPE svg PUBLIC "-//W3C//DTD SVG 1.1//EN" "http://www.w3.org/Graphics/SVG/1.1/DTD/svg11.dtd" [
	<!ENTITY ns_flows "http://ns.adobe.com/Flows/1.0/">
]>
<svg version="1.1"
	 xmlns="http://www.w3.org/2000/svg" xmlns:xlink="http://www.w3.org/1999/xlink" xmlns:a="http://ns.adobe.com/AdobeSVGViewerExtensions/3.0/"
	 x="0px" y="0px" width="800px" height="600px" viewBox="-11.011 -29.972 800 600" enable-background="new -11.011 -29.972 800 600"
	 xml:space="preserve">
<defs>
</defs>
<g display="none">
	<path display="inline" fill="#333435" d="M303.14,445.986l0.69,1.426l-7.31,3.537c-2.901,1.404-4.482,0.408-5.392-1.471
		c-0.259-0.535-0.452-1.223-0.47-1.633l1.245-0.363c0.028,0.348,0.134,0.815,0.37,1.302c0.612,1.265,1.532,1.719,3.671,0.684
		L303.14,445.986z"/>
	<path display="inline" fill="#333435" d="M298.565,459.599c-0.681,0.329-1.33,0.684-1.825,1.024l-0.62-1.281l0.934-0.592
		l-0.023-0.049c-0.828-0.139-1.787-0.716-2.328-1.834c-0.769-1.588-0.042-2.939,1.093-3.488c1.896-0.918,3.749,0.266,5.199,3.305
		l0.162-0.078c0.632-0.307,1.729-1.057,0.937-2.653c-0.361-0.745-0.94-1.405-1.58-1.776l0.799-0.787
		c0.719,0.452,1.457,1.275,1.936,2.264c1.161,2.399-0.194,3.774-1.75,4.527L298.565,459.599z M300.021,457.194
		c-0.721-1.571-1.851-3.205-3.374-2.468c-0.94,0.455-1.064,1.274-0.719,1.987c0.502,1.037,1.472,1.389,2.247,1.294
		c0.186-0.03,0.355-0.092,0.485-0.155L300.021,457.194z"/>
	<path display="inline" fill="#333435" d="M305.845,459.434l-3.647,3.665c-0.604,0.612-1.15,1.137-1.72,1.612l0.023,0.049
		c0.734-0.136,1.493-0.223,2.347-0.316l5.13-0.602l0.721,1.492l-9.334,0.715l-0.659-1.361l6.402-6.777L305.845,459.434z"/>
	<path display="inline" fill="#333435" d="M306.02,475.008c-0.681,0.329-1.33,0.684-1.826,1.023l-0.62-1.281l0.934-0.591
		l-0.023-0.048c-0.828-0.141-1.787-0.717-2.328-1.835c-0.769-1.589-0.042-2.94,1.093-3.489c1.896-0.917,3.749,0.268,5.199,3.305
		l0.162-0.078c0.632-0.306,1.729-1.056,0.936-2.652c-0.361-0.746-0.94-1.405-1.58-1.776l0.8-0.788
		c0.719,0.453,1.457,1.276,1.936,2.265c1.16,2.399-0.194,3.774-1.75,4.527L306.02,475.008z M307.476,472.604
		c-0.72-1.572-1.851-3.205-3.374-2.468c-0.939,0.455-1.063,1.274-0.719,1.987c0.502,1.037,1.472,1.389,2.246,1.294
		c0.186-0.03,0.355-0.093,0.485-0.155L307.476,472.604z"/>
</g>
<g display="none">
	<path display="inline" fill="#333435" d="M426.771,509.339l1.377-0.784l4.018,7.058c1.595,2.801,0.708,4.445-1.107,5.479
		c-0.516,0.294-1.188,0.531-1.598,0.578l-0.444-1.218c0.344-0.051,0.804-0.188,1.273-0.456c1.221-0.695,1.612-1.644,0.437-3.709
		L426.771,509.339z"/>
	<path display="inline" fill="#333435" d="M440.66,512.993c0.374,0.657,0.771,1.281,1.143,1.753l-1.236,0.704l-0.652-0.893
		l-0.047,0.027c-0.084,0.835-0.595,1.83-1.675,2.444c-1.533,0.873-2.931,0.239-3.554-0.856c-1.043-1.83,0.015-3.758,2.949-5.409
		l-0.089-0.156c-0.347-0.61-1.169-1.654-2.71-0.757c-0.72,0.41-1.339,1.031-1.666,1.694l-0.839-0.745
		c0.403-0.747,1.175-1.539,2.13-2.082c2.315-1.318,3.778-0.059,4.633,1.443L440.66,512.993z M438.163,511.7
		c-1.521,0.824-3.074,2.062-2.237,3.532c0.518,0.907,1.344,0.976,2.031,0.584c1.002-0.57,1.287-1.562,1.142-2.328
		c-0.043-0.183-0.116-0.349-0.188-0.474L438.163,511.7z"/>
	<path display="inline" fill="#333435" d="M440.007,505.739l3.901,3.395c0.65,0.562,1.211,1.072,1.724,1.609l0.047-0.027
		c-0.185-0.724-0.322-1.475-0.473-2.32l-0.942-5.078l1.439-0.82l1.338,9.267l-1.314,0.748l-7.19-5.935L440.007,505.739z"/>
	<path display="inline" fill="#333435" d="M455.535,504.524c0.375,0.657,0.771,1.281,1.144,1.754l-1.236,0.703l-0.652-0.893
		l-0.047,0.027c-0.084,0.835-0.595,1.83-1.675,2.444c-1.533,0.873-2.931,0.239-3.554-0.856c-1.042-1.83,0.015-3.758,2.949-5.408
		l-0.089-0.156c-0.348-0.611-1.17-1.655-2.71-0.758c-0.719,0.41-1.339,1.031-1.666,1.694l-0.839-0.745
		c0.403-0.747,1.175-1.539,2.13-2.082c2.315-1.318,3.778-0.059,4.634,1.443L455.535,504.524z M453.039,503.231
		c-1.52,0.824-3.074,2.062-2.236,3.532c0.517,0.907,1.343,0.976,2.031,0.584c1.001-0.57,1.287-1.562,1.141-2.327
		c-0.043-0.184-0.116-0.35-0.188-0.475L453.039,503.231z"/>
	<path display="inline" fill="#333435" d="M457.808,503.79c0.564,0.01,1.445-0.117,2.133-0.51c0.986-0.561,1.18-1.313,0.814-1.955
		c-0.374-0.657-0.961-0.778-2.177-0.584c-1.662,0.283-2.722-0.087-3.239-0.994c-0.694-1.221-0.263-2.792,1.349-3.71
		c0.767-0.437,1.556-0.616,2.114-0.582l0.241,1.188c-0.404-0.018-1.104,0.027-1.808,0.429c-0.813,0.463-0.984,1.182-0.664,1.745
		c0.356,0.625,0.955,0.658,2.163,0.488c1.575-0.255,2.638,0.011,3.279,1.137c0.766,1.346,0.252,2.882-1.516,3.889
		c-0.829,0.472-1.722,0.689-2.431,0.68L457.808,503.79z"/>
	<path display="inline" fill="#333435" d="M470.23,498.211c-0.262,0.377-0.908,1.097-1.926,1.676
		c-2.284,1.301-4.652,0.599-5.971-1.718c-1.328-2.331-0.702-4.945,1.77-6.354c0.813-0.463,1.649-0.67,2.141-0.68l0.283,1.227
		c-0.426,0.016-1.049,0.121-1.8,0.549c-1.737,0.988-1.937,2.822-1.046,4.387c0.998,1.753,2.738,2.191,4.241,1.336
		c0.782-0.445,1.192-0.928,1.485-1.322L470.23,498.211z"/>
	<path display="inline" fill="#333435" d="M469.025,492.351c-0.508-0.893-0.96-1.65-1.408-2.328l1.205-0.686l0.918,1.466
		l0.047-0.026c-0.235-1.213,0.245-2.335,1.168-2.861c0.141-0.08,0.26-0.127,0.394-0.182l0.739,1.299
		c-0.159,0.048-0.3,0.128-0.487,0.235c-0.971,0.552-1.249,1.664-0.849,2.804c0.076,0.205,0.193,0.449,0.318,0.668l2.298,4.037
		l-1.377,0.784L469.025,492.351z"/>
	<path display="inline" fill="#333435" d="M473.179,484.038c0.268,0.47,0.152,1.033-0.395,1.344
		c-0.501,0.285-1.044,0.098-1.311-0.372c-0.268-0.47-0.146-1.058,0.37-1.351C472.345,483.374,472.904,483.553,473.179,484.038z
		 M477.168,494.613l-4.312-7.574l1.377-0.784l4.312,7.574L477.168,494.613z"/>
	<path display="inline" fill="#333435" d="M477.925,487.429c-0.553-0.971-1.029-1.735-1.471-2.438l1.221-0.695l0.818,1.255
		l0.031-0.019c0.021-1.234,0.626-2.283,1.862-2.986c1.847-1.051,4.105-0.287,5.406,1.998c1.55,2.723,0.642,5.021-1.143,6.037
		c-1.001,0.57-2.127,0.631-3.008,0.139l-0.032,0.018l2.343,4.115l-1.361,0.775L477.925,487.429z M480.435,488.672
		c0.116,0.203,0.238,0.382,0.384,0.527c0.794,0.812,1.997,0.997,2.982,0.436c1.455-0.828,1.624-2.498,0.636-4.235
		c-0.855-1.502-2.394-2.347-3.849-1.518c-0.938,0.534-1.456,1.699-1.119,2.874c0.052,0.198,0.12,0.429,0.218,0.602L480.435,488.672z
		"/>
	<path display="inline" fill="#333435" d="M486.043,477.13l1.033,1.814l1.972-1.122l0.597,1.048l-1.972,1.123l2.326,4.084
		c0.533,0.938,1.103,1.319,1.869,0.883c0.375-0.214,0.576-0.37,0.744-0.549l0.66,1.013c-0.213,0.246-0.582,0.58-1.114,0.884
		c-0.642,0.365-1.283,0.439-1.815,0.267c-0.616-0.209-1.156-0.792-1.664-1.685l-2.352-4.131l-1.174,0.668l-0.597-1.049l1.174-0.667
		l-0.802-1.408L486.043,477.13z"/>
</g>
<g display="none">
	<path display="inline" fill="#333435" d="M383.855,508.021c0.792-0.144,1.944-0.252,3.007-0.252c1.674,0,2.772,0.324,3.511,0.99
		c0.594,0.54,0.954,1.368,0.954,2.323c0,1.584-1.009,2.646-2.269,3.078v0.055c0.918,0.324,1.477,1.188,1.764,2.448
		c0.396,1.692,0.685,2.862,0.938,3.331h-1.621c-0.198-0.36-0.468-1.387-0.792-2.898c-0.36-1.675-1.026-2.305-2.449-2.359h-1.476
		v5.258h-1.566V508.021z M385.422,513.55h1.603c1.674,0,2.736-0.919,2.736-2.305c0-1.566-1.134-2.252-2.791-2.252
		c-0.756,0-1.278,0.055-1.548,0.127V513.55z"/>
	<path display="inline" fill="#333435" d="M400.778,517.601c0,0.918,0.018,1.711,0.072,2.395h-1.404l-0.091-1.422h-0.036
		c-0.396,0.701-1.332,1.62-2.881,1.62c-1.368,0-3.007-0.774-3.007-3.817v-5.096h1.585v4.808c0,1.657,0.521,2.791,1.944,2.791
		c1.062,0,1.8-0.738,2.089-1.458c0.09-0.217,0.144-0.505,0.144-0.811v-5.33h1.585V517.601z"/>
	<path display="inline" fill="#333435" d="M403.403,507.212h1.566v5.473h0.037c0.558-0.972,1.566-1.584,2.971-1.584
		c2.178,0,3.691,1.801,3.691,4.43c0,3.114-1.981,4.663-3.926,4.663c-1.26,0-2.27-0.486-2.936-1.62h-0.035l-0.09,1.422h-1.352
		c0.037-0.594,0.072-1.477,0.072-2.25V507.212z M404.969,516.502c0,0.198,0.019,0.396,0.072,0.576
		c0.289,1.099,1.225,1.854,2.377,1.854c1.674,0,2.646-1.35,2.646-3.349c0-1.747-0.9-3.241-2.61-3.241
		c-1.062,0-2.071,0.756-2.396,1.945c-0.053,0.197-0.09,0.414-0.09,0.666V516.502z"/>
	<path display="inline" fill="#333435" d="M414.095,511.28l1.891,5.15c0.216,0.576,0.433,1.26,0.576,1.781h0.036
		c0.162-0.521,0.342-1.188,0.559-1.818l1.729-5.113h1.674l-2.377,6.212c-1.135,2.989-1.908,4.501-2.988,5.456
		c-0.793,0.666-1.549,0.936-1.945,1.008l-0.396-1.314c0.396-0.126,0.919-0.378,1.387-0.773c0.433-0.343,0.955-0.955,1.333-1.766
		c0.071-0.162,0.126-0.287,0.126-0.377c0-0.091-0.036-0.217-0.126-0.414l-3.205-8.031H414.095z"/>
</g>
<g display="none">
	<path display="inline" fill="#333435" d="M324.576,480.956c0.728,0.24,1.654,0.604,2.771,1.189c1.37,0.721,2.207,1.566,2.544,2.475
		c0.306,0.812,0.263,1.785-0.239,2.742c-0.511,0.973-1.199,1.588-2.035,1.861c-1.159,0.387-2.548,0.166-3.903-0.545
		c-0.415-0.217-0.789-0.436-1.065-0.682l-2.26,4.305l-1.387-0.729L324.576,480.956z M323.243,486.866
		c0.261,0.238,0.627,0.471,1.089,0.713c1.674,0.879,3.129,0.586,3.891-0.865c0.753-1.436,0.093-2.656-1.421-3.451
		c-0.605-0.318-1.093-0.512-1.365-0.574L323.243,486.866z"/>
	<path display="inline" fill="#333435" d="M332.057,488.585l-0.72,5.438c-0.077,0.611-0.203,1.316-0.318,1.846l0.032,0.018
		c0.386-0.387,0.854-0.893,1.339-1.352l3.908-3.725l1.482,0.779l-4.992,4.395c-2.394,2.121-3.782,3.1-5.182,3.441
		c-1.011,0.223-1.806,0.109-2.19-0.01l0.26-1.348c0.409,0.072,0.989,0.092,1.588-0.043c0.541-0.102,1.288-0.4,2-0.941
		c0.139-0.111,0.245-0.197,0.287-0.277s0.068-0.207,0.081-0.424l0.895-8.602L332.057,488.585z"/>
	<path display="inline" fill="#333435" d="M341.714,491.296l-0.971,1.848l2.009,1.055l-0.561,1.068l-2.008-1.055l-2.185,4.162
		c-0.502,0.955-0.516,1.641,0.266,2.051c0.382,0.201,0.623,0.285,0.863,0.33l-0.497,1.102c-0.321-0.047-0.802-0.176-1.344-0.461
		c-0.654-0.344-1.062-0.844-1.205-1.385c-0.157-0.631,0.044-1.4,0.521-2.311l2.209-4.207l-1.195-0.629l0.561-1.068l1.195,0.629
		l0.753-1.436L341.714,491.296z"/>
	<path display="inline" fill="#333435" d="M346.22,491.423l1.402,0.736l-2.535,4.83l0.031,0.018
		c0.433-0.281,0.976-0.465,1.532-0.477c0.54-0.021,1.11,0.094,1.635,0.369c1.036,0.545,2.36,2.053,0.971,4.699l-2.41,4.592
		l-1.403-0.736l2.327-4.434c0.652-1.242,0.734-2.521-0.589-3.217c-0.908-0.477-1.945-0.207-2.609,0.4
		c-0.188,0.166-0.313,0.363-0.447,0.619l-2.444,4.656l-1.403-0.736L346.22,491.423z"/>
	<path display="inline" fill="#333435" d="M358.165,507.13c-1.498,2.854-4.143,3.051-5.993,2.08
		c-2.073-1.088-2.896-3.473-1.615-5.912c1.348-2.566,3.849-3.186,5.969-2.072C358.742,502.39,359.395,504.786,358.165,507.13z
		 M352.017,504.003c-0.887,1.691-0.601,3.469,0.771,4.188c1.339,0.703,3.004-0.029,3.917-1.768c0.686-1.307,0.894-3.291-0.763-4.162
		C354.299,501.399,352.779,502.554,352.017,504.003z"/>
	<path display="inline" fill="#333435" d="M360.827,506.351c0.427-0.812,0.746-1.459,1.033-2.121l1.244,0.652l-0.59,1.316
		l0.031,0.018c0.76-0.518,2.028-0.766,3.304-0.096c1.068,0.561,2.392,2.068,1.002,4.715l-2.41,4.592l-1.403-0.736l2.335-4.449
		c0.652-1.242,0.734-2.521-0.589-3.217c-0.908-0.477-1.969-0.199-2.635,0.447c-0.155,0.143-0.312,0.365-0.438,0.604l-2.435,4.641
		l-1.403-0.736L360.827,506.351z"/>
</g>
<g display="none">
	<path display="inline" fill="#333435" d="M493.855,471.261c0.309-0.701,0.763-1.588,1.455-2.643c0.85-1.294,1.772-2.045,2.71-2.291
		c0.837-0.226,1.802-0.088,2.705,0.506c0.919,0.603,1.462,1.348,1.653,2.205c0.273,1.191-0.082,2.553-0.922,3.832
		c-0.257,0.392-0.51,0.743-0.781,0.994l4.063,2.668l-0.86,1.311L493.855,471.261z M499.607,473.163
		c0.262-0.236,0.529-0.578,0.816-1.016c1.037-1.58,0.887-3.057-0.482-3.956c-1.355-0.89-2.635-0.352-3.574,1.079
		c-0.375,0.572-0.616,1.037-0.704,1.303L499.607,473.163z"/>
	<path display="inline" fill="#333435" d="M499.849,461.866l4.244,2.787l3.223-4.906l-4.245-2.787l0.87-1.324l10.145,6.66
		l-0.869,1.325l-4.757-3.122l-3.222,4.906l4.756,3.122l-0.869,1.325l-10.145-6.661L499.849,461.866z"/>
	<path display="inline" fill="#333435" d="M505.551,453.444c0.31-0.701,0.763-1.588,1.455-2.641c0.85-1.295,1.772-2.045,2.71-2.292
		c0.838-0.226,1.803-0.087,2.705,0.505c0.919,0.604,1.463,1.349,1.654,2.206c0.272,1.192-0.082,2.553-0.922,3.832
		c-0.258,0.392-0.51,0.743-0.782,0.995l4.063,2.668l-0.859,1.309L505.551,453.444z M511.303,455.348
		c0.263-0.237,0.529-0.578,0.816-1.015c1.037-1.58,0.887-3.058-0.483-3.957c-1.354-0.889-2.634-0.352-3.572,1.079
		c-0.375,0.571-0.617,1.038-0.705,1.304L511.303,455.348z"/>
</g>
<line display="none" fill="none" stroke="#4D4D4D" stroke-width="5" x1="403.992" y1="468.976" x2="403.992" y2="503.474"/>
<line display="none" fill="none" stroke="#4D4D4D" stroke-width="5" x1="371.387" y1="458.767" x2="354.137" y2="488.643"/>
<line display="none" fill="none" stroke="#4D4D4D" stroke-width="5" x1="346.809" y1="445.178" x2="316.932" y2="462.427"/>
<line display="none" fill="none" stroke="#4D4D4D" stroke-width="5" x1="437.227" y1="458.767" x2="454.476" y2="488.642"/>
<line display="none" fill="none" stroke="#4D4D4D" stroke-width="5" x1="458.975" y1="445.178" x2="488.851" y2="462.426"/>
<line display="none" fill="none" stroke="#4D4D4D" stroke-width="5" x1="403.992" y1="341.524" x2="403.992" y2="409.843"/>
<g display="none">
	<path display="inline" fill="#333435" d="M461.46,397.313c0.776-0.189,1.911-0.314,3.065-0.314c1.365,0,2.666,0.336,3.465,1.092
		c0.672,0.608,1.028,1.448,1.028,2.561c0,1.575-0.776,2.919-1.7,3.695c-1.092,0.924-2.688,1.344-4.283,1.344
		c-0.547,0-1.008-0.041-1.449-0.104l-1.07,5.669h-1.723L461.46,397.313z M461.86,404.116c0.482,0.105,0.902,0.146,1.406,0.146
		c2.394,0,3.989-1.49,3.989-3.484c0-1.701-1.196-2.373-2.813-2.373c-0.693,0-1.218,0.062-1.533,0.146L461.86,404.116z"/>
	<path display="inline" fill="#333435" d="M469.273,411.255l2.835-14.907h1.742l-1.26,6.53h0.042c0.86-1.239,2.1-2.016,3.632-2.016
		c1.155,0,2.52,0.692,2.52,2.729c0,0.525-0.062,1.197-0.168,1.701l-1.133,5.963h-1.743l1.134-5.879
		c0.062-0.357,0.126-0.84,0.126-1.406c0-0.924-0.44-1.659-1.575-1.659c-1.344,0-3.044,1.575-3.464,3.843l-0.944,5.102H469.273z"/>
	<path display="inline" fill="#333435" d="M480.487,411.255l1.953-10.162h1.721l-1.932,10.162H480.487z M482.754,398.279
		c0.021-0.672,0.525-1.176,1.134-1.176c0.63,0,1.05,0.462,1.05,1.092c-0.021,0.692-0.504,1.176-1.197,1.176
		C483.132,399.371,482.754,398.909,482.754,398.279z"/>
	<path display="inline" fill="#333435" d="M485.317,411.255l2.834-14.907h1.742l-2.834,14.907H485.317z"/>
	<path display="inline" fill="#333435" d="M490.104,411.255l1.953-10.162h1.722l-1.932,10.162H490.104z M492.372,398.279
		c0.021-0.672,0.525-1.176,1.135-1.176c0.629,0,1.049,0.462,1.049,1.092c-0.021,0.692-0.504,1.176-1.196,1.176
		C492.75,399.371,492.372,398.909,492.372,398.279z"/>
	<path display="inline" fill="#333435" d="M494.01,415.412l2.037-10.708c0.23-1.238,0.44-2.604,0.566-3.633h1.596l-0.273,1.932
		h0.043c0.902-1.344,2.246-2.141,3.652-2.141c2.184,0,3.107,1.805,3.107,3.674c0,3.59-2.561,6.949-5.941,6.949
		c-1.07,0-1.785-0.23-2.184-0.461h-0.042l-0.819,4.388H494.01z M496.866,409.554c0.462,0.357,1.113,0.567,1.953,0.567
		c2.246,0,4.115-2.792,4.115-5.459c0-1.071-0.463-2.352-1.953-2.352c-1.365,0-3.065,1.554-3.59,4.409L496.866,409.554z"/>
	<path display="inline" fill="#333435" d="M514.252,397.104l-1.133,5.963h6.508l1.135-5.963h1.742l-2.688,14.151h-1.742l1.238-6.656
		h-6.488l-1.26,6.656h-1.742l2.688-14.151H514.252z"/>
	<path display="inline" fill="#333435" d="M529.667,411.255c0-0.609,0.105-1.574,0.23-2.625h-0.041
		c-1.092,2.121-2.499,2.855-3.947,2.855c-1.807,0-2.919-1.428-2.919-3.359c0-3.548,2.604-7.264,7.034-7.264
		c0.986,0,2.036,0.168,2.75,0.377l-1.05,5.312c-0.336,1.764-0.462,3.569-0.42,4.703H529.667z M530.8,402.395
		c-0.231-0.084-0.608-0.147-1.196-0.147c-2.646,0-4.809,2.73-4.809,5.564c0,1.134,0.398,2.246,1.742,2.246
		c1.449,0,3.171-1.889,3.675-4.598L530.8,402.395z"/>
	<path display="inline" fill="#333435" d="M533.049,410.185l4.934-5.502c0.861-0.944,1.428-1.469,2.121-2.1v-0.062h-5.207
		l0.293-1.428h7.286l-0.231,1.154l-4.85,5.418c-0.924,0.986-1.47,1.512-2.1,2.1l-0.021,0.062h5.648l-0.294,1.428h-7.769
		L533.049,410.185z"/>
	<path display="inline" fill="#333435" d="M549.827,410.688c-0.756,0.42-1.995,0.797-3.359,0.797c-2.688,0-3.863-1.848-3.863-4.094
		c0-3.065,2.268-6.529,5.543-6.529c1.932,0,2.98,1.154,2.98,2.624c0,2.667-3.002,3.359-6.76,3.296
		c-0.084,0.441-0.021,1.387,0.209,1.932c0.399,0.924,1.219,1.365,2.268,1.365c1.197,0,2.1-0.357,2.73-0.693L549.827,410.688z
		 M547.895,402.227c-1.659,0-2.898,1.616-3.339,3.212c2.751,0.043,4.892-0.336,4.892-1.932
		C549.448,402.688,548.819,402.227,547.895,402.227z"/>
	<path display="inline" fill="#333435" d="M552.032,411.255l2.835-14.907h1.743l-2.835,14.907H552.032z"/>
</g>
<linearGradient id="SVGID_1_" gradientUnits="userSpaceOnUse" x1="403.2544" y1="468.9756" x2="403.2544" y2="409.8428">
	<stop  offset="0" style="stop-color:#FAB08C"/>
	<stop  offset="1" style="stop-color:#FA8044"/>
</linearGradient>
<ellipse display="none" fill="url(#SVGID_1_)" stroke="#333435" stroke-width="2.2515" cx="403.255" cy="439.409" rx="56.528" ry="29.566"/>
<g display="none">
	<path display="inline" fill="#333435" d="M378.187,430.492c1.08-0.192,2.544-0.337,4.512-0.337c2.161,0,3.721,0.456,4.752,1.32
		c0.96,0.792,1.584,2.064,1.584,3.576c0,1.536-0.48,2.784-1.368,3.648c-1.2,1.177-3.024,1.752-5.112,1.752
		c-0.552,0-1.032-0.023-1.44-0.119v6.12h-2.928V430.492z M381.115,438.004c0.384,0.12,0.84,0.145,1.44,0.145
		c2.208,0,3.552-1.104,3.552-2.977c0-1.8-1.248-2.736-3.289-2.736c-0.816,0-1.392,0.072-1.704,0.145V438.004z"/>
	<path display="inline" fill="#333435" d="M403.196,445.997c-0.696,0.336-2.232,0.72-4.201,0.72c-5.136,0-8.256-3.216-8.256-8.16
		c0-5.329,3.721-8.545,8.664-8.545c1.945,0,3.312,0.408,3.912,0.72l-0.623,2.353c-0.769-0.336-1.849-0.624-3.168-0.624
		c-3.289,0-5.665,2.064-5.665,5.952c0,3.576,2.063,5.833,5.64,5.833c1.177,0,2.425-0.24,3.217-0.576L403.196,445.997z"/>
	<path display="inline" fill="#333435" d="M405.715,430.516c1.127-0.216,2.76-0.36,4.464-0.36c2.328,0,3.888,0.385,4.993,1.297
		c0.887,0.744,1.392,1.872,1.392,3.264c0,2.089-1.417,3.505-2.952,4.032v0.072c1.176,0.433,1.872,1.561,2.256,3.12
		c0.528,2.017,0.96,3.889,1.271,4.513h-3.023c-0.24-0.48-0.648-1.8-1.08-3.816c-0.48-2.112-1.225-2.784-2.904-2.832h-1.488v6.648
		h-2.928V430.516z M408.643,437.645h1.752c1.992,0,3.217-1.057,3.217-2.664c0-1.753-1.225-2.593-3.145-2.593
		c-0.936,0-1.536,0.072-1.824,0.145V437.645z"/>
	<path display="inline" fill="#333435" d="M428.418,439.276h-6.096v4.753h6.816v2.424h-9.77v-16.178h9.409v2.425h-6.456v4.176h6.096
		V439.276z"/>
</g>
<g display="none">
	<path display="inline" fill="#808080" d="M4.25,460.136H4.213l-2.233,1.062l-0.45-2.053l3.115-1.439h2.25v11.703H4.25V460.136z"/>
	<path display="inline" fill="#808080" d="M11.592,467.446c0.36,0.036,0.648,0.018,1.188,0c0.846-0.054,1.692-0.287,2.305-0.72
		c0.774-0.522,1.278-1.296,1.476-2.179l-0.036-0.018c-0.522,0.539-1.296,0.846-2.359,0.846c-1.98,0-3.637-1.369-3.637-3.655
		s1.837-4.213,4.412-4.213c3.007,0,4.429,2.305,4.429,5.042c0,2.448-0.774,4.213-2.053,5.4c-1.116,1.009-2.665,1.549-4.483,1.621
		c-0.45,0.036-0.936,0.018-1.242,0V467.446z M13.249,461.56c0,1.008,0.559,1.871,1.657,1.871c0.756,0,1.278-0.342,1.53-0.756
		c0.09-0.18,0.126-0.359,0.126-0.701c0.018-1.243-0.45-2.467-1.729-2.467C13.915,459.507,13.249,460.335,13.249,461.56z"/>
	<path display="inline" fill="#808080" d="M21.583,467.446c0.36,0.036,0.648,0.018,1.188,0c0.846-0.054,1.692-0.287,2.305-0.72
		c0.774-0.522,1.278-1.296,1.476-2.179l-0.036-0.018c-0.522,0.539-1.296,0.846-2.359,0.846c-1.98,0-3.637-1.369-3.637-3.655
		s1.837-4.213,4.412-4.213c3.007,0,4.429,2.305,4.429,5.042c0,2.448-0.774,4.213-2.053,5.4c-1.116,1.009-2.665,1.549-4.483,1.621
		c-0.45,0.036-0.936,0.018-1.242,0V467.446z M23.239,461.56c0,1.008,0.559,1.871,1.657,1.871c0.756,0,1.278-0.342,1.53-0.756
		c0.09-0.18,0.126-0.359,0.126-0.701c0.018-1.243-0.45-2.467-1.729-2.467C23.905,459.507,23.239,460.335,23.239,461.56z"/>
	<path display="inline" fill="#808080" d="M39.369,463.503c0,3.602-1.458,6.104-4.43,6.104c-3.024,0-4.357-2.72-4.375-6.032
		c0-3.402,1.422-6.067,4.447-6.067C38.126,457.508,39.369,460.298,39.369,463.503z M33.301,463.575c0,2.684,0.648,3.961,1.692,3.961
		c1.062,0,1.639-1.332,1.639-3.996c0-2.594-0.558-3.962-1.657-3.962C33.985,459.578,33.301,460.839,33.301,463.575z"/>
	<path display="inline" fill="#808080" d="M44.245,456.95c-0.558,1.746-1.332,3.51-2.161,4.861l-1.656,0.162
		c0.54-1.549,1.008-3.277,1.26-4.862L44.245,456.95z"/>
	<path display="inline" fill="#808080" d="M44.046,467.032c0.504,0.307,1.548,0.648,2.358,0.648c0.828,0,1.17-0.27,1.17-0.721
		c0-0.468-0.27-0.684-1.278-1.025c-1.836-0.613-2.539-1.604-2.521-2.646c0-1.657,1.405-2.899,3.583-2.899
		c1.026,0,1.927,0.252,2.467,0.522l-0.468,1.891c-0.396-0.217-1.17-0.505-1.909-0.505c-0.667,0-1.044,0.271-1.044,0.702
		s0.342,0.648,1.422,1.026c1.675,0.576,2.359,1.44,2.377,2.72c0,1.656-1.278,2.862-3.799,2.862c-1.152,0-2.179-0.271-2.845-0.63
		L44.046,467.032z"/>
</g>
<line fill="none" stroke="#4D4D4D" stroke-width="5" x1="352.282" y1="251.309" x2="388.057" y2="287.084"/>
<linearGradient id="SVGID_2_" gradientUnits="userSpaceOnUse" x1="403.2544" y1="341.5254" x2="403.2544" y2="282.3926">
	<stop  offset="0" style="stop-color:#FAB08C"/>
	<stop  offset="1" style="stop-color:#FA8044"/>
</linearGradient>
<ellipse fill="url(#SVGID_2_)" stroke="#333435" stroke-width="2.2515" cx="403.255" cy="311.959" rx="56.528" ry="29.566"/>
<g>
	<path fill="#333435" d="M477.721,291.318h1.742l-2.414,12.64h5.711l-0.294,1.512h-7.433L477.721,291.318z"/>
	<path fill="#333435" d="M490.929,305.47c0-0.609,0.104-1.574,0.231-2.625h-0.043c-1.092,2.121-2.498,2.855-3.947,2.855
		c-1.805,0-2.918-1.428-2.918-3.359c0-3.548,2.604-7.264,7.033-7.264c0.987,0,2.037,0.168,2.751,0.377l-1.05,5.312
		c-0.336,1.764-0.462,3.569-0.42,4.703H490.929z M492.063,296.609c-0.23-0.084-0.609-0.147-1.197-0.147
		c-2.645,0-4.808,2.73-4.808,5.564c0,1.134,0.399,2.246,1.743,2.246c1.448,0,3.17-1.889,3.674-4.598L492.063,296.609z"/>
	<path fill="#333435" d="M495.172,305.47l1.238-6.551c0.231-1.322,0.399-2.666,0.504-3.611h1.533
		c-0.084,0.714-0.168,1.428-0.273,2.205h0.063c0.651-1.387,1.743-2.436,3.107-2.436c0.168,0,0.356,0.021,0.504,0.041l-0.336,1.723
		c-0.126-0.021-0.294-0.043-0.483-0.043c-1.512,0-2.855,1.827-3.296,4.199l-0.84,4.473H495.172z"/>
	<path fill="#333435" d="M501.85,305.47l1.238-6.551c0.231-1.322,0.399-2.666,0.504-3.611h1.533
		c-0.084,0.714-0.168,1.428-0.273,2.205h0.063c0.651-1.387,1.743-2.436,3.107-2.436c0.168,0,0.356,0.021,0.504,0.041l-0.336,1.723
		c-0.126-0.021-0.294-0.043-0.483-0.043c-1.512,0-2.855,1.827-3.296,4.199l-0.84,4.473H501.85z"/>
	<path fill="#333435" d="M511.153,295.308l1.008,5.459c0.23,1.176,0.356,1.932,0.461,2.688h0.043
		c0.272-0.65,0.566-1.365,1.092-2.498l2.604-5.648h1.848l-3.822,7.727c-1.092,2.184-2.12,3.969-3.506,5.333
		c-1.134,1.155-2.373,1.638-2.939,1.764l-0.441-1.512c0.441-0.147,1.176-0.42,1.869-0.966c0.693-0.525,1.428-1.344,1.974-2.352
		c0.084-0.168,0.084-0.273,0.042-0.462l-2.037-9.532H511.153z"/>
	<path fill="#333435" d="M485.848,325.47l-0.693-14.151h1.764l0.294,8.482c0.063,1.827,0.021,2.792,0,3.695h0.042
		c0.336-0.924,0.693-1.848,1.47-3.591l3.927-8.587h1.848l0.293,8.146c0.063,1.848,0.063,3.065,0.043,3.989h0.041
		c0.42-1.218,0.84-2.352,1.387-3.633l3.8-8.503h1.827l-6.551,14.151h-1.848l-0.357-8.041c-0.084-1.659-0.062-2.457,0.042-4.074
		h-0.063c-0.461,1.344-0.84,2.436-1.428,3.717l-3.968,8.398H485.848z"/>
	<path fill="#333435" d="M507.079,325.47c0-0.609,0.104-1.574,0.23-2.625h-0.042c-1.092,2.121-2.499,2.855-3.947,2.855
		c-1.806,0-2.919-1.428-2.919-3.359c0-3.548,2.604-7.264,7.034-7.264c0.987,0,2.036,0.168,2.751,0.377l-1.051,5.312
		c-0.336,1.764-0.461,3.569-0.42,4.703H507.079z M508.211,316.609c-0.23-0.084-0.608-0.147-1.196-0.147
		c-2.646,0-4.808,2.73-4.808,5.564c0,1.134,0.398,2.246,1.742,2.246c1.449,0,3.17-1.889,3.674-4.598L508.211,316.609z"/>
	<path fill="#333435" d="M511.321,325.47l2.835-14.907h1.743l-2.835,14.907H511.321z"/>
	<path fill="#333435" d="M516.129,325.47l2.835-14.907h1.743l-2.835,14.907H516.129z"/>
</g>
<g>
	<path fill="#333435" d="M385.003,303.04c1.08-0.191,2.544-0.336,4.512-0.336c2.161,0,3.721,0.457,4.753,1.32
		c0.96,0.793,1.584,2.064,1.584,3.576c0,1.537-0.48,2.785-1.368,3.648c-1.2,1.176-3.024,1.752-5.112,1.752
		c-0.552,0-1.032-0.023-1.44-0.119v6.12h-2.928V303.04z M387.931,310.554c0.384,0.119,0.84,0.144,1.44,0.144
		c2.208,0,3.553-1.104,3.553-2.976c0-1.801-1.248-2.736-3.289-2.736c-0.816,0-1.392,0.071-1.704,0.144V310.554z"/>
	<path fill="#333435" d="M399.788,313.985c0.071,2.112,1.703,3.024,3.6,3.024c1.368,0,2.328-0.216,3.24-0.528l0.432,2.017
		c-1.008,0.433-2.399,0.744-4.08,0.744c-3.792,0-6.024-2.329-6.024-5.905c0-3.24,1.968-6.288,5.713-6.288
		c3.792,0,5.04,3.12,5.04,5.688c0,0.553-0.048,0.984-0.096,1.248H399.788z M404.923,311.921c0.024-1.08-0.456-2.855-2.424-2.855
		c-1.824,0-2.593,1.656-2.712,2.855H404.923z"/>
	<path fill="#333435" d="M410.083,311.081c0-1.584-0.023-2.736-0.096-3.768h2.544l0.12,2.207h0.072
		c0.576-1.631,1.943-2.472,3.216-2.472c0.288,0,0.456,0.024,0.696,0.072v2.761c-0.264-0.049-0.527-0.072-0.889-0.072
		c-1.392,0-2.375,0.888-2.64,2.232c-0.048,0.264-0.071,0.575-0.071,0.887v6.073h-2.953V311.081z"/>
	<path fill="#333435" d="M418.625,301.96h2.953v17.042h-2.953V301.96z"/>
</g>
<line fill="none" stroke="#4D4D4D" stroke-width="5" x1="167.059" y1="341.524" x2="167.059" y2="382.313"/>
<g>
	<path fill="#333435" d="M208.066,383.83c-0.915-1.426-2.024-3.157-2.765-4.456l-0.031,0.019c0.32,1.435,0.654,3.005,0.951,4.763
		l1.051,6.177l-1.033,0.588l-4.58-4.042c-1.356-1.218-2.529-2.332-3.539-3.414l-0.031,0.018c0.717,1.332,1.636,3.129,2.451,4.778
		l2.292,4.683l-1.298,0.74l-5.269-10.966l1.736-0.989l4.704,4.077c1.177,1.05,2.18,2.012,3.086,2.946l0.031-0.018
		c-0.324-1.225-0.607-2.596-0.896-4.193l-1.026-6.17l1.736-0.989l6.662,10.173l-1.346,0.766L208.066,383.83z"/>
	<path fill="#333435" d="M210.643,378.468l4.191,3.54c0.473,0.394,0.999,0.882,1.382,1.264l0.032-0.018
		c-0.118-0.534-0.291-1.202-0.415-1.856l-1.028-5.299l1.455-0.829l1.008,6.575c0.493,3.158,0.569,4.855,0.102,6.22
		c-0.358,0.971-0.882,1.579-1.19,1.838l-0.994-0.946c0.281-0.306,0.61-0.783,0.821-1.359c0.206-0.511,0.357-1.301,0.285-2.191
		c-0.018-0.178-0.033-0.313-0.078-0.392c-0.044-0.078-0.138-0.17-0.313-0.298l-6.759-5.393L210.643,378.468z"/>
	<path fill="#333435" d="M220.751,380.545c0.833,0.044,1.879-0.157,2.817-0.692c1.393-0.793,1.788-1.991,1.183-3.056
		c-0.553-0.97-1.446-1.229-3.172-0.949c-2.078,0.354-3.658,0.052-4.496-1.419c-0.935-1.643-0.269-3.639,1.781-4.806
		c1.063-0.605,2.005-0.81,2.61-0.802l0.257,1.325c-0.444-0.017-1.318,0.087-2.272,0.63c-1.439,0.82-1.498,1.992-1.088,2.712
		c0.562,0.985,1.479,1.105,3.255,0.841c2.175-0.327,3.558,0.025,4.439,1.574c0.927,1.628,0.548,3.729-1.94,5.145
		c-1.017,0.58-2.306,0.898-3.083,0.844L220.751,380.545z"/>
	<path fill="#333435" d="M239.163,374.312c-1.639,0.436-3.271,0.806-4.732,1.078c-0.279,0.055-0.526,0.093-0.73,0.209
		c-2.573,1.34-5.752,0.705-7.693-2.707c-1.924-3.379-1.113-6.721,1.734-8.342c2.88-1.64,6.006-0.478,7.779,2.637
		c1.55,2.722,1.277,5.156-0.118,6.779l0.035,0.062c1.2-0.33,2.485-0.73,3.466-1.082L239.163,374.312z M234.125,368.084
		c-1.211-2.128-3.544-3.68-5.782-2.406c-2.3,1.31-2.215,4.079-0.915,6.364c1.283,2.253,3.653,3.576,5.812,2.348
		C235.399,373.16,235.488,370.478,234.125,368.084z"/>
	<path fill="#333435" d="M234.338,361.042l1.377-0.784l5.354,9.404l4.507-2.565l0.65,1.143l-5.884,3.35L234.338,361.042z"/>
</g>
<g>
	<path fill="#333435" d="M82.201,356.319c0.729,0.24,1.655,0.605,2.771,1.191c1.371,0.719,2.208,1.564,2.544,2.475
		c0.307,0.811,0.263,1.785-0.239,2.74c-0.51,0.973-1.2,1.588-2.034,1.861c-1.16,0.389-2.548,0.166-3.904-0.545
		c-0.414-0.217-0.789-0.434-1.065-0.682l-2.259,4.305l-1.388-0.727L82.201,356.319z M80.868,362.229
		c0.261,0.238,0.626,0.471,1.089,0.715c1.674,0.879,3.13,0.584,3.891-0.865c0.753-1.436,0.093-2.656-1.422-3.453
		c-0.605-0.316-1.093-0.512-1.365-0.574L80.868,362.229z"/>
	<path fill="#333435" d="M93.701,370.897c-1.498,2.854-4.143,3.051-5.993,2.08c-2.072-1.088-2.896-3.471-1.615-5.91
		c1.347-2.568,3.848-3.186,5.968-2.072C94.278,366.157,94.931,368.554,93.701,370.897z M87.553,367.772
		c-0.887,1.689-0.6,3.467,0.771,4.188c1.339,0.703,3.004-0.029,3.917-1.768c0.686-1.307,0.895-3.293-0.763-4.162
		C89.835,365.167,88.315,366.321,87.553,367.772z"/>
	<path fill="#333435" d="M93.963,374.228c0.296,0.48,0.879,1.152,1.58,1.521c1.005,0.527,1.742,0.283,2.085-0.369
		c0.352-0.67,0.138-1.23-0.682-2.148c-1.135-1.246-1.396-2.338-0.91-3.264c0.653-1.244,2.208-1.729,3.851-0.865
		c0.781,0.41,1.358,0.977,1.63,1.465l-0.87,0.844c-0.203-0.35-0.618-0.914-1.336-1.289c-0.829-0.436-1.526-0.191-1.827,0.381
		c-0.335,0.639-0.039,1.16,0.756,2.086c1.063,1.189,1.414,2.227,0.812,3.375c-0.72,1.371-2.29,1.766-4.092,0.82
		c-0.845-0.443-1.509-1.076-1.884-1.68L93.963,374.228z"/>
	<path fill="#333435" d="M106.432,370.382l-0.971,1.85l2.009,1.055l-0.561,1.068L104.9,373.3l-2.184,4.16
		c-0.502,0.957-0.516,1.641,0.266,2.051c0.382,0.201,0.623,0.287,0.863,0.332l-0.498,1.102c-0.321-0.047-0.801-0.178-1.343-0.463
		c-0.654-0.342-1.062-0.842-1.205-1.385c-0.157-0.631,0.044-1.4,0.521-2.309l2.209-4.209l-1.195-0.627l0.561-1.068l1.195,0.627
		l0.753-1.434L106.432,370.382z"/>
	<path fill="#333435" d="M112.095,384.112c-0.938,1.785-1.864,2.66-2.958,2.961c-1.125,0.285-2.335-0.045-3.307-0.557
		c-0.925-0.484-1.829-1.244-2.232-1.984l0.919-0.9c0.334,0.604,0.981,1.309,1.937,1.811c1.436,0.752,2.881,0.557,3.91-1.404
		l0.443-0.846l-0.032-0.018c-0.791,0.5-1.937,0.631-3.133,0.004c-1.912-1.004-2.431-3.352-1.309-5.486
		c1.373-2.615,3.848-3.186,5.634-2.248c1.339,0.701,1.697,1.764,1.713,2.586l0.032,0.016l0.658-1.139l1.243,0.654
		c-0.332,0.516-0.683,1.146-1.168,2.07L112.095,384.112z M112.549,379.837c0.126-0.24,0.219-0.455,0.247-0.664
		c0.181-0.963-0.138-1.984-1.174-2.527c-1.339-0.703-2.891-0.074-3.828,1.711c-0.795,1.516-0.675,3.186,0.824,3.971
		c0.877,0.461,1.942,0.328,2.698-0.414c0.205-0.197,0.379-0.451,0.505-0.689L112.549,379.837z"/>
	<path fill="#333435" d="M116.501,381.097c0.477-0.908,0.871-1.699,1.2-2.441l1.228,0.645l-0.74,1.564l0.048,0.025
		c0.895-0.852,2.099-1.055,3.039-0.561c0.144,0.076,0.247,0.15,0.366,0.232l-0.694,1.324c-0.126-0.107-0.27-0.184-0.461-0.283
		c-0.988-0.52-2.075-0.154-2.819,0.797c-0.131,0.176-0.273,0.406-0.39,0.629l-2.159,4.113l-1.403-0.736L116.501,381.097z"/>
	<path fill="#333435" d="M121.439,385.864c-0.964,1.914-0.179,3.322,1.24,4.068c1.004,0.527,1.718,0.678,2.346,0.723l-0.272,1.139
		c-0.612-0.037-1.615-0.217-2.842-0.861c-2.375-1.248-2.966-3.57-1.744-5.898s3.547-3.426,5.795-2.244
		c2.535,1.33,2.034,3.873,1.289,5.291c-0.15,0.287-0.275,0.486-0.392,0.629L121.439,385.864z M126.08,387.021
		c0.476-0.869,0.821-2.457-0.757-3.285c-1.435-0.754-2.719,0.219-3.341,1.133L126.08,387.021z"/>
	<path fill="#333435" d="M127.304,391.729c0.296,0.48,0.879,1.152,1.581,1.521c1.004,0.527,1.742,0.283,2.085-0.369
		c0.352-0.67,0.137-1.23-0.683-2.148c-1.135-1.246-1.396-2.338-0.91-3.264c0.652-1.244,2.209-1.729,3.852-0.865
		c0.78,0.41,1.357,0.977,1.63,1.465l-0.871,0.844c-0.202-0.35-0.618-0.914-1.335-1.289c-0.829-0.436-1.526-0.191-1.828,0.381
		c-0.334,0.639-0.039,1.16,0.756,2.086c1.064,1.189,1.414,2.227,0.811,3.375c-0.72,1.371-2.29,1.766-4.091,0.82
		c-0.846-0.443-1.509-1.076-1.884-1.68L127.304,391.729z"/>
</g>
<line fill="none" stroke="#4D4D4D" stroke-width="5" x1="133.372" y1="336.419" x2="116.122" y2="366.295"/>
<line fill="none" stroke="#4D4D4D" stroke-width="5" x1="199.212" y1="336.419" x2="216.461" y2="366.294"/>
<line fill="none" stroke="#4D4D4D" stroke-width="5" x1="224.891" y1="246.314" x2="183.785" y2="287.421"/>
<linearGradient id="SVGID_3_" gradientUnits="userSpaceOnUse" x1="167.0596" y1="341.5254" x2="167.0596" y2="282.3926">
	<stop  offset="0" style="stop-color:#FAB08C"/>
	<stop  offset="1" style="stop-color:#FA8044"/>
</linearGradient>
<ellipse fill="url(#SVGID_3_)" stroke="#333435" stroke-width="2.2515" cx="167.06" cy="311.959" rx="56.528" ry="29.566"/>
<g>
	<path fill="#333435" d="M161.201,386.577v2.088h2.269v1.207h-2.269v4.699c0,1.08,0.306,1.692,1.188,1.692
		c0.432,0,0.685-0.036,0.918-0.108l0.072,1.207c-0.306,0.107-0.792,0.216-1.405,0.216c-0.738,0-1.333-0.253-1.71-0.667
		c-0.432-0.485-0.612-1.26-0.612-2.286v-4.753h-1.35v-1.207h1.35v-1.62L161.201,386.577z"/>
	<path fill="#333435" d="M171.354,397.073c-0.414,0.199-1.333,0.505-2.503,0.505c-2.629,0-4.339-1.782-4.339-4.447
		c0-2.683,1.836-4.646,4.682-4.646c0.936,0,1.764,0.234,2.197,0.468l-0.36,1.206c-0.378-0.197-0.972-0.414-1.836-0.414
		c-1.999,0-3.079,1.495-3.079,3.295c0,2.018,1.296,3.26,3.025,3.26c0.9,0,1.495-0.217,1.945-0.414L171.354,397.073z"/>
	<path fill="#333435" d="M173.207,384.597h1.584v12.783h-1.584V384.597z"/>
</g>
<g>
	<path fill="#333435" d="M246.257,291.798l-1.134,5.963h6.509l1.134-5.963h1.743l-2.688,14.151h-1.743l1.239-6.655h-6.488
		l-1.26,6.655h-1.743l2.688-14.151H246.257z"/>
	<path fill="#333435" d="M262.258,305.382c-0.756,0.42-1.995,0.799-3.359,0.799c-2.688,0-3.863-1.848-3.863-4.095
		c0-3.065,2.268-6.53,5.543-6.53c1.932,0,2.981,1.155,2.981,2.625c0,2.666-3.002,3.359-6.761,3.297
		c-0.084,0.44-0.021,1.385,0.21,1.932c0.399,0.924,1.218,1.364,2.268,1.364c1.197,0,2.1-0.356,2.729-0.692L262.258,305.382z
		 M260.327,296.921c-1.659,0-2.897,1.617-3.338,3.213c2.75,0.041,4.892-0.336,4.892-1.932
		C261.88,297.383,261.25,296.921,260.327,296.921z"/>
	<path fill="#333435" d="M264.464,305.949l1.344-7.202c0.231-1.133,0.378-2.12,0.483-2.96h1.554l-0.252,1.995h0.042
		c0.903-1.428,2.289-2.227,3.758-2.227c1.218,0,2.583,0.693,2.583,2.814c0,0.461-0.084,1.092-0.189,1.637l-1.134,5.942h-1.722
		l1.113-5.879c0.063-0.399,0.126-0.86,0.126-1.302c0-1.008-0.399-1.764-1.596-1.764c-1.239,0-3.002,1.49-3.464,4.01l-0.924,4.935
		H264.464z"/>
	<path fill="#333435" d="M275.678,305.949l1.239-6.551c0.231-1.323,0.399-2.667,0.504-3.611h1.533
		c-0.084,0.714-0.168,1.428-0.273,2.204h0.063c0.651-1.385,1.743-2.436,3.107-2.436c0.168,0,0.357,0.021,0.504,0.043l-0.336,1.721
		c-0.126-0.021-0.294-0.041-0.483-0.041c-1.512,0-2.855,1.826-3.296,4.199l-0.84,4.472H275.678z"/>
	<path fill="#333435" d="M284.98,295.787l1.008,5.459c0.231,1.176,0.357,1.932,0.462,2.688h0.042
		c0.273-0.651,0.567-1.364,1.092-2.499l2.604-5.647h1.848l-3.821,7.727c-1.092,2.184-2.121,3.968-3.506,5.333
		c-1.134,1.154-2.373,1.638-2.939,1.764l-0.441-1.512c0.441-0.146,1.176-0.42,1.869-0.966c0.693-0.524,1.428-1.344,1.974-2.352
		c0.084-0.168,0.084-0.272,0.042-0.462l-2.037-9.532H284.98z"/>
	<path fill="#333435" d="M233.941,323.766c0.777,0.524,1.827,0.903,3.002,0.903c1.596,0,3.065-0.945,3.065-2.646
		c0-1.049-0.588-1.848-2.079-2.645c-1.806-0.987-2.813-2.121-2.813-3.633c0-2.541,2.184-4.157,4.787-4.157
		c1.386,0,2.415,0.399,2.897,0.735l-0.63,1.428c-0.441-0.273-1.323-0.672-2.457-0.672c-1.743,0-2.792,1.154-2.792,2.309
		c0,1.155,0.714,1.807,2.205,2.625c1.743,0.945,2.688,2.058,2.688,3.801c0,2.436-1.911,4.367-5.102,4.367
		c-1.407-0.021-2.813-0.463-3.401-0.987L233.941,323.766z"/>
	<path fill="#333435" d="M242.53,330.106l2.037-10.708c0.231-1.239,0.441-2.604,0.567-3.632h1.596l-0.273,1.932h0.042
		c0.903-1.344,2.247-2.143,3.653-2.143c2.184,0,3.107,1.807,3.107,3.675c0,3.591-2.562,6.95-5.942,6.95
		c-1.071,0-1.785-0.231-2.184-0.463h-0.042l-0.819,4.389H242.53z M245.386,324.249c0.462,0.356,1.113,0.566,1.953,0.566
		c2.247,0,4.115-2.793,4.115-5.459c0-1.07-0.462-2.352-1.953-2.352c-1.365,0-3.065,1.554-3.59,4.409L245.386,324.249z"/>
	<path fill="#333435" d="M261.849,325.382c-0.756,0.42-1.995,0.799-3.359,0.799c-2.688,0-3.863-1.848-3.863-4.095
		c0-3.065,2.268-6.53,5.543-6.53c1.932,0,2.981,1.155,2.981,2.625c0,2.666-3.002,3.359-6.761,3.297
		c-0.084,0.44-0.021,1.385,0.21,1.932c0.399,0.924,1.218,1.364,2.268,1.364c1.197,0,2.1-0.356,2.729-0.692L261.849,325.382z
		 M259.917,316.921c-1.659,0-2.897,1.617-3.338,3.213c2.75,0.041,4.892-0.336,4.892-1.932
		C261.471,317.383,260.841,316.921,259.917,316.921z"/>
	<path fill="#333435" d="M264.055,325.949l1.344-7.202c0.231-1.133,0.378-2.12,0.483-2.96h1.554l-0.252,1.995h0.042
		c0.903-1.428,2.289-2.227,3.758-2.227c1.218,0,2.583,0.693,2.583,2.814c0,0.461-0.084,1.092-0.189,1.637l-1.134,5.942h-1.722
		l1.113-5.879c0.063-0.399,0.126-0.86,0.126-1.302c0-1.008-0.399-1.764-1.596-1.764c-1.239,0-3.002,1.49-3.464,4.01l-0.924,4.935
		H264.055z"/>
	<path fill="#333435" d="M282.239,325.529c-0.525,0.272-1.575,0.63-2.939,0.63c-2.625,0-3.905-1.764-3.905-3.926
		c0-3.465,2.562-6.656,6.215-6.656c0.945,0,1.806,0.273,2.121,0.441l-0.504,1.385c-0.399-0.188-0.966-0.377-1.722-0.377
		c-2.646,0-4.304,2.604-4.304,4.996c0,1.639,0.861,2.709,2.52,2.709c1.05,0,1.827-0.314,2.352-0.566L282.239,325.529z"/>
	<path fill="#333435" d="M291.269,325.382c-0.756,0.42-1.995,0.799-3.359,0.799c-2.688,0-3.863-1.848-3.863-4.095
		c0-3.065,2.268-6.53,5.543-6.53c1.932,0,2.981,1.155,2.981,2.625c0,2.666-3.002,3.359-6.761,3.297
		c-0.084,0.44-0.021,1.385,0.21,1.932c0.399,0.924,1.218,1.364,2.268,1.364c1.197,0,2.1-0.356,2.729-0.692L291.269,325.382z
		 M289.337,316.921c-1.659,0-2.897,1.617-3.338,3.213c2.75,0.041,4.892-0.336,4.892-1.932
		C290.891,317.383,290.261,316.921,289.337,316.921z"/>
	<path fill="#333435" d="M293.475,325.949l1.239-6.551c0.231-1.323,0.399-2.667,0.504-3.611h1.533
		c-0.084,0.714-0.168,1.428-0.273,2.204h0.063c0.651-1.385,1.743-2.436,3.107-2.436c0.168,0,0.357,0.021,0.504,0.043l-0.336,1.721
		c-0.126-0.021-0.294-0.041-0.483-0.041c-1.512,0-2.855,1.826-3.296,4.199l-0.84,4.472H293.475z"/>
</g>
<g>
	<path fill="#333435" d="M155.768,303.065c1.128-0.215,2.76-0.359,4.464-0.359c2.328,0,3.888,0.384,4.993,1.296
		c0.888,0.744,1.392,1.872,1.392,3.265c0,2.088-1.416,3.504-2.952,4.032v0.071c1.176,0.433,1.873,1.561,2.256,3.121
		c0.528,2.016,0.96,3.889,1.272,4.512h-3.024c-0.24-0.479-0.648-1.8-1.08-3.816c-0.48-2.111-1.224-2.783-2.904-2.832h-1.488v6.648
		h-2.928V303.065z M158.696,310.194h1.752c1.992,0,3.216-1.056,3.216-2.664c0-1.752-1.224-2.592-3.144-2.592
		c-0.936,0-1.536,0.072-1.824,0.144V310.194z"/>
	<path fill="#333435" d="M178.472,311.827h-6.097v4.752h6.816v2.424h-9.769v-16.177h9.409v2.424h-6.457v4.177h6.097V311.827z"/>
</g>
<g>
	<path fill="#808080" d="M4.25,314.575H4.214l-2.233,1.062l-0.45-2.053l3.115-1.441h2.25v11.704H4.25V314.575z"/>
	<path fill="#808080" d="M11.593,321.886c0.36,0.035,0.648,0.018,1.188,0c0.846-0.055,1.692-0.289,2.305-0.721
		c0.774-0.522,1.278-1.297,1.476-2.179l-0.036-0.019c-0.522,0.541-1.296,0.847-2.359,0.847c-1.98,0-3.637-1.368-3.637-3.655
		s1.837-4.213,4.412-4.213c3.007,0,4.429,2.305,4.429,5.041c0,2.449-0.774,4.213-2.053,5.402c-1.116,1.008-2.665,1.548-4.483,1.62
		c-0.45,0.036-0.936,0.019-1.242,0V321.886z M13.249,315.997c0,1.008,0.559,1.873,1.657,1.873c0.756,0,1.278-0.342,1.53-0.756
		c0.09-0.181,0.126-0.361,0.126-0.703c0.018-1.242-0.45-2.467-1.729-2.467C13.916,313.944,13.249,314.772,13.249,315.997z"/>
	<path fill="#808080" d="M22.646,317.815c-1.135-0.594-1.693-1.548-1.693-2.574c0-1.98,1.783-3.295,4.124-3.295
		c2.737,0,3.871,1.584,3.871,3.007c0,1.009-0.54,1.999-1.71,2.575v0.053c1.152,0.434,2.161,1.405,2.161,2.899
		c0,2.125-1.783,3.565-4.501,3.565c-2.971,0-4.339-1.675-4.339-3.26c0-1.404,0.81-2.376,2.089-2.934V317.815z M26.606,320.696
		c0-1.025-0.774-1.639-1.836-1.926c-0.9,0.252-1.422,0.9-1.422,1.746c-0.018,0.846,0.63,1.639,1.656,1.639
		C25.958,322.155,26.606,321.524,26.606,320.696z M23.545,315.151c0,0.792,0.702,1.296,1.639,1.584
		c0.63-0.18,1.188-0.756,1.188-1.477c0-0.738-0.415-1.458-1.422-1.458C24.014,313.801,23.545,314.431,23.545,315.151z"/>
	<path fill="#808080" d="M39.369,317.942c0,3.601-1.458,6.104-4.43,6.104c-3.024,0-4.357-2.719-4.375-6.031
		c0-3.404,1.422-6.068,4.447-6.068C38.126,311.946,39.369,314.737,39.369,317.942z M33.301,318.015c0,2.682,0.648,3.961,1.692,3.961
		c1.062,0,1.639-1.333,1.639-3.998c0-2.592-0.558-3.961-1.657-3.961C33.985,314.017,33.301,315.276,33.301,318.015z"/>
	<path fill="#808080" d="M44.245,311.388c-0.558,1.746-1.332,3.512-2.161,4.861l-1.656,0.162c0.54-1.549,1.008-3.277,1.26-4.861
		L44.245,311.388z"/>
	<path fill="#808080" d="M44.047,321.472c0.504,0.305,1.548,0.647,2.358,0.647c0.828,0,1.17-0.271,1.17-0.72
		c0-0.469-0.27-0.685-1.278-1.027c-1.836-0.611-2.539-1.602-2.521-2.646c0-1.656,1.405-2.898,3.583-2.898
		c1.026,0,1.927,0.252,2.467,0.521l-0.468,1.891c-0.396-0.216-1.17-0.504-1.909-0.504c-0.667,0-1.044,0.27-1.044,0.703
		c0,0.432,0.342,0.647,1.422,1.025c1.675,0.576,2.359,1.44,2.377,2.719c0,1.656-1.278,2.863-3.799,2.863
		c-1.152,0-2.179-0.27-2.845-0.631L44.047,321.472z"/>
</g>
<g display="none">
	<path display="inline" d="M573.19,217.701v-0.536h2.109c0.434,0,0.742,0.083,0.928,0.25c0.184,0.167,0.276,0.385,0.276,0.655
		c0,0.264-0.093,0.479-0.276,0.646c-0.186,0.167-0.494,0.25-0.928,0.25h-0.308v6.557c0,0.633-0.134,1.185-0.399,1.657
		c-0.268,0.472-0.676,0.877-1.227,1.217s-1.172,0.51-1.863,0.51h-2.039c-0.434,0-0.742-0.083-0.928-0.25
		c-0.184-0.167-0.276-0.382-0.276-0.646c0-0.27,0.093-0.488,0.276-0.655c0.186-0.167,0.494-0.25,0.928-0.25h1.986
		c0.551,0,0.979-0.149,1.283-0.448s0.457-0.677,0.457-1.134v-0.879c-0.398,0.258-0.805,0.451-1.217,0.58
		c-0.414,0.129-0.837,0.193-1.271,0.193c-1.225,0-2.25-0.409-3.076-1.226s-1.239-1.827-1.239-3.028c0-1.207,0.413-2.219,1.239-3.037
		s1.852-1.226,3.076-1.226c0.457,0,0.892,0.066,1.306,0.198C572.42,217.231,572.815,217.432,573.19,217.701z M573.181,221.155
		c0-0.662-0.245-1.236-0.733-1.723c-0.49-0.486-1.077-0.729-1.763-0.729s-1.273,0.243-1.763,0.729s-0.733,1.061-0.733,1.723
		c0,0.668,0.244,1.244,0.733,1.727s1.077,0.725,1.763,0.725s1.272-0.242,1.763-0.725
		C572.936,222.399,573.181,221.823,573.181,221.155z"/>
	<path display="inline" d="M581.636,217.165v1.125c0.756-0.545,1.352-0.908,1.789-1.09c0.436-0.182,0.845-0.272,1.226-0.272
		c0.586,0,1.154,0.217,1.705,0.65c0.375,0.293,0.562,0.592,0.562,0.896c0,0.258-0.09,0.476-0.269,0.655s-0.394,0.268-0.646,0.268
		c-0.223,0-0.457-0.111-0.703-0.334s-0.466-0.334-0.659-0.334c-0.252,0-0.629,0.158-1.129,0.475
		c-0.502,0.316-1.127,0.791-1.877,1.424v2.716h2.566c0.434,0,0.742,0.083,0.928,0.25c0.184,0.167,0.276,0.385,0.276,0.655
		c0,0.264-0.093,0.479-0.276,0.646c-0.186,0.167-0.494,0.25-0.928,0.25h-5.44c-0.434,0-0.743-0.083-0.927-0.25
		c-0.186-0.167-0.277-0.385-0.277-0.655c0-0.264,0.092-0.479,0.277-0.646c0.184-0.167,0.493-0.25,0.927-0.25h1.072v-4.377h-0.65
		c-0.434,0-0.743-0.083-0.927-0.25c-0.186-0.167-0.277-0.385-0.277-0.655c0-0.264,0.092-0.479,0.277-0.646
		c0.184-0.167,0.493-0.25,0.927-0.25H581.636z"/>
	<path display="inline" d="M597.333,222.069h-7.392c0.188,0.469,0.52,0.847,0.998,1.134c0.477,0.287,1.123,0.431,1.938,0.431
		c0.668,0,1.556-0.144,2.663-0.431c0.457-0.117,0.773-0.176,0.949-0.176c0.24,0,0.442,0.085,0.606,0.255s0.246,0.384,0.246,0.642
		c0,0.234-0.088,0.434-0.264,0.598c-0.234,0.217-0.806,0.423-1.714,0.62s-1.781,0.294-2.619,0.294c-1.441,0-2.595-0.407-3.458-1.222
		c-0.865-0.814-1.297-1.816-1.297-3.006c0-1.266,0.467-2.295,1.402-3.089c0.934-0.794,2.011-1.191,3.229-1.191
		c0.732,0,1.404,0.129,2.017,0.387s1.068,0.536,1.367,0.835c0.422,0.434,0.771,0.97,1.046,1.608
		c0.188,0.445,0.281,0.961,0.281,1.547V222.069z M595.338,220.268c-0.275-0.516-0.636-0.901-1.081-1.156s-0.976-0.382-1.591-0.382
		c-0.609,0-1.137,0.127-1.582,0.382s-0.809,0.64-1.09,1.156H595.338z"/>
	<path display="inline" d="M601.376,224.152v2.953h1.081c0.434,0,0.743,0.083,0.927,0.25c0.186,0.167,0.277,0.385,0.277,0.655
		c0,0.264-0.092,0.479-0.277,0.646c-0.184,0.167-0.493,0.25-0.927,0.25h-3.19c-0.434,0-0.742-0.083-0.928-0.25
		c-0.184-0.167-0.276-0.382-0.276-0.646c0-0.27,0.094-0.488,0.281-0.655s0.495-0.25,0.923-0.25h0.308v-8.139h-0.308
		c-0.434,0-0.742-0.083-0.928-0.25c-0.184-0.167-0.276-0.385-0.276-0.655c0-0.264,0.093-0.479,0.276-0.646
		c0.186-0.167,0.494-0.25,0.928-0.25h2.109v0.615c0.422-0.287,0.858-0.501,1.31-0.642s0.914-0.211,1.389-0.211
		c1.23,0,2.279,0.417,3.146,1.252s1.301,1.792,1.301,2.87c0,1.189-0.513,2.171-1.538,2.944c-0.855,0.645-1.819,0.967-2.892,0.967
		c-0.463,0-0.92-0.067-1.371-0.202S601.822,224.422,601.376,224.152z M606.72,221.059c0-0.252-0.1-0.573-0.299-0.962
		s-0.506-0.715-0.918-0.976c-0.414-0.261-0.898-0.391-1.455-0.391c-0.896,0-1.608,0.337-2.136,1.011
		c-0.357,0.463-0.536,0.908-0.536,1.336c0,0.48,0.256,0.948,0.77,1.402c0.512,0.454,1.146,0.681,1.902,0.681
		c0.762,0,1.397-0.226,1.907-0.677S606.72,221.557,606.72,221.059z"/>
</g>
<g display="none">
	<g display="inline">
		<line fill="none" stroke="#333435" stroke-width="2" x1="487.292" y1="221.146" x2="550.729" y2="221.146"/>
		<path fill="#333435" d="M559.178,221.146c-3.976,1.475-8.908,3.992-11.966,6.657l2.408-6.657l-2.408-6.657
			C550.27,217.153,555.203,219.671,559.178,221.146z"/>
	</g>
</g>
<g display="none">
	<path display="inline" d="M420.081,217.701v-0.536h2.109c0.434,0,0.742,0.083,0.928,0.25c0.184,0.167,0.276,0.385,0.276,0.655
		c0,0.264-0.093,0.479-0.276,0.646c-0.186,0.167-0.494,0.25-0.928,0.25h-0.308v6.557c0,0.633-0.134,1.185-0.399,1.657
		c-0.268,0.472-0.676,0.877-1.227,1.217s-1.172,0.51-1.863,0.51h-2.039c-0.434,0-0.742-0.083-0.928-0.25
		c-0.184-0.167-0.276-0.382-0.276-0.646c0-0.27,0.093-0.488,0.276-0.655c0.186-0.167,0.494-0.25,0.928-0.25h1.986
		c0.551,0,0.979-0.149,1.283-0.448s0.457-0.677,0.457-1.134v-0.879c-0.398,0.258-0.805,0.451-1.217,0.58
		c-0.414,0.129-0.837,0.193-1.271,0.193c-1.225,0-2.25-0.409-3.076-1.226s-1.239-1.827-1.239-3.028c0-1.207,0.413-2.219,1.239-3.037
		s1.852-1.226,3.076-1.226c0.457,0,0.892,0.066,1.306,0.198C419.311,217.231,419.706,217.432,420.081,217.701z M420.072,221.155
		c0-0.662-0.245-1.236-0.733-1.723c-0.49-0.486-1.077-0.729-1.763-0.729s-1.272,0.243-1.763,0.729
		c-0.488,0.486-0.733,1.061-0.733,1.723c0,0.668,0.245,1.244,0.733,1.727c0.49,0.483,1.077,0.725,1.763,0.725
		s1.272-0.242,1.763-0.725C419.827,222.399,420.072,221.823,420.072,221.155z"/>
	<path display="inline" d="M432.614,213.983l-5.774,12.445c-0.146,0.311-0.278,0.513-0.396,0.606
		c-0.152,0.123-0.337,0.185-0.554,0.185c-0.246,0-0.459-0.088-0.637-0.264c-0.18-0.176-0.269-0.375-0.269-0.598
		c0-0.158,0.07-0.39,0.211-0.694l5.792-12.437c0.146-0.311,0.275-0.513,0.387-0.606c0.158-0.123,0.343-0.185,0.554-0.185
		c0.246,0,0.457,0.086,0.633,0.259s0.264,0.371,0.264,0.593C432.825,213.447,432.754,213.679,432.614,213.983z"/>
	<path display="inline" d="M441.034,217.165l-0.237,1.125c0.879-0.551,1.554-0.916,2.026-1.094c0.471-0.179,0.897-0.268,1.278-0.268
		c0.516,0,0.97,0.16,1.362,0.479s0.589,0.611,0.589,0.875c0,0.287-0.116,0.545-0.347,0.773c-0.232,0.229-0.491,0.343-0.778,0.343
		c-0.223,0-0.434-0.111-0.633-0.334s-0.396-0.334-0.589-0.334c-0.217,0-0.568,0.123-1.055,0.369s-1.271,0.756-2.355,1.529
		l-0.571,2.716h2.558c0.404,0,0.677,0.062,0.817,0.185s0.211,0.299,0.211,0.527c0,0.363-0.173,0.665-0.519,0.905
		c-0.182,0.123-0.478,0.185-0.888,0.185h-5.449c-0.398,0-0.67-0.063-0.813-0.189s-0.215-0.3-0.215-0.523
		c0-0.363,0.17-0.662,0.51-0.896c0.188-0.129,0.489-0.193,0.905-0.193h1.081l0.923-4.377h-0.65c-0.398,0-0.671-0.063-0.817-0.189
		s-0.22-0.3-0.22-0.523c0-0.352,0.167-0.647,0.501-0.888c0.188-0.135,0.495-0.202,0.923-0.202H441.034z"/>
	<path display="inline" d="M455.685,222.069h-7.392c0.082,0.463,0.328,0.839,0.738,1.129s1.025,0.435,1.846,0.435
		c0.68,0,1.603-0.144,2.769-0.431c0.486-0.117,0.82-0.176,1.002-0.176c0.193,0,0.354,0.063,0.483,0.189s0.193,0.292,0.193,0.497
		c0,0.299-0.134,0.564-0.399,0.795c-0.268,0.231-0.896,0.444-1.886,0.637s-1.884,0.29-2.681,0.29c-1.254,0-2.223-0.315-2.904-0.945
		c-0.684-0.63-1.024-1.434-1.024-2.413c0-0.814,0.247-1.632,0.743-2.452c0.494-0.82,1.2-1.475,2.117-1.964s1.859-0.734,2.826-0.734
		c1.137,0,2.058,0.313,2.764,0.94s1.06,1.503,1.06,2.628c0,0.24-0.029,0.51-0.088,0.809L455.685,222.069z M454.068,220.268
		c-0.158-0.492-0.434-0.872-0.826-1.138s-0.896-0.4-1.512-0.4s-1.172,0.127-1.67,0.382s-0.94,0.64-1.327,1.156H454.068z"/>
	<path display="inline" d="M465.019,213.983l-5.774,12.445c-0.146,0.311-0.278,0.513-0.396,0.606
		c-0.152,0.123-0.337,0.185-0.554,0.185c-0.246,0-0.459-0.088-0.637-0.264c-0.18-0.176-0.269-0.375-0.269-0.598
		c0-0.158,0.07-0.39,0.211-0.694l5.792-12.437c0.146-0.311,0.275-0.513,0.387-0.606c0.158-0.123,0.343-0.185,0.554-0.185
		c0.246,0,0.457,0.086,0.633,0.259s0.264,0.371,0.264,0.593C465.23,213.447,465.16,213.679,465.019,213.983z"/>
	<path display="inline" d="M469.871,224.152v2.953h1.081c0.434,0,0.743,0.083,0.927,0.25c0.186,0.167,0.277,0.385,0.277,0.655
		c0,0.264-0.092,0.479-0.277,0.646c-0.184,0.167-0.493,0.25-0.927,0.25h-3.19c-0.434,0-0.742-0.083-0.928-0.25
		c-0.184-0.167-0.276-0.382-0.276-0.646c0-0.27,0.094-0.488,0.281-0.655s0.495-0.25,0.923-0.25h0.308v-8.139h-0.308
		c-0.434,0-0.742-0.083-0.928-0.25c-0.184-0.167-0.276-0.385-0.276-0.655c0-0.264,0.093-0.479,0.276-0.646
		c0.186-0.167,0.494-0.25,0.928-0.25h2.109v0.615c0.422-0.287,0.858-0.501,1.31-0.642s0.914-0.211,1.389-0.211
		c1.23,0,2.279,0.417,3.146,1.252s1.301,1.792,1.301,2.87c0,1.189-0.513,2.171-1.538,2.944c-0.855,0.645-1.819,0.967-2.892,0.967
		c-0.463,0-0.92-0.067-1.371-0.202S470.316,224.422,469.871,224.152z M475.214,221.059c0-0.252-0.1-0.573-0.299-0.962
		s-0.506-0.715-0.918-0.976c-0.414-0.261-0.898-0.391-1.455-0.391c-0.896,0-1.608,0.337-2.136,1.011
		c-0.357,0.463-0.536,0.908-0.536,1.336c0,0.48,0.256,0.948,0.77,1.402c0.512,0.454,1.146,0.681,1.902,0.681
		c0.762,0,1.397-0.226,1.907-0.677S475.214,221.557,475.214,221.059z"/>
</g>
<g>
	<path fill="#808080" d="M4.25,218.901H4.214l-2.233,1.062l-0.45-2.053l3.115-1.44h2.25v11.704H4.25V218.901z"/>
	<path fill="#808080" d="M11.593,226.212c0.36,0.036,0.648,0.018,1.188,0c0.846-0.054,1.692-0.288,2.305-0.72
		c0.774-0.522,1.278-1.296,1.476-2.179l-0.036-0.018c-0.522,0.54-1.296,0.846-2.359,0.846c-1.98,0-3.637-1.369-3.637-3.655
		s1.837-4.213,4.412-4.213c3.007,0,4.429,2.305,4.429,5.042c0,2.449-0.774,4.213-2.053,5.401c-1.116,1.008-2.665,1.548-4.483,1.621
		c-0.45,0.036-0.936,0.018-1.242,0V226.212z M13.249,220.324c0,1.008,0.559,1.872,1.657,1.872c0.756,0,1.278-0.342,1.53-0.756
		c0.09-0.18,0.126-0.36,0.126-0.702c0.018-1.243-0.45-2.467-1.729-2.467C13.916,218.271,13.249,219.1,13.249,220.324z"/>
	<path fill="#808080" d="M29.127,216.471v1.729l-4.825,9.975h-2.899l4.826-9.417v-0.036h-5.366v-2.251H29.127z"/>
	<path fill="#808080" d="M39.369,222.269c0,3.601-1.458,6.104-4.43,6.104c-3.024,0-4.357-2.719-4.375-6.032
		c0-3.403,1.422-6.068,4.447-6.068C38.126,216.273,39.369,219.063,39.369,222.269z M33.301,222.341c0,2.683,0.648,3.961,1.692,3.961
		c1.062,0,1.639-1.333,1.639-3.997c0-2.593-0.558-3.961-1.657-3.961C33.985,218.343,33.301,219.604,33.301,222.341z"/>
	<path fill="#808080" d="M44.245,215.715c-0.558,1.746-1.332,3.511-2.161,4.861l-1.656,0.162c0.54-1.549,1.008-3.277,1.26-4.862
		L44.245,215.715z"/>
	<path fill="#808080" d="M44.047,225.798c0.504,0.306,1.548,0.648,2.358,0.648c0.828,0,1.17-0.27,1.17-0.72
		c0-0.468-0.27-0.684-1.278-1.026c-1.836-0.612-2.539-1.603-2.521-2.646c0-1.657,1.405-2.899,3.583-2.899
		c1.026,0,1.927,0.252,2.467,0.522l-0.468,1.891c-0.396-0.216-1.17-0.504-1.909-0.504c-0.667,0-1.044,0.27-1.044,0.703
		c0,0.432,0.342,0.648,1.422,1.026c1.675,0.576,2.359,1.44,2.377,2.719c0,1.656-1.278,2.863-3.799,2.863
		c-1.152,0-2.179-0.27-2.845-0.63L44.047,225.798z"/>
</g>
<line fill="none" stroke="#4D4D4D" stroke-width="5" x1="290.639" y1="154.049" x2="290.639" y2="188.547"/>
<linearGradient id="SVGID_4_" gradientUnits="userSpaceOnUse" x1="290.6387" y1="263.5059" x2="290.6387" y2="188.3887">
	<stop  offset="0" style="stop-color:#FAB08C"/>
	<stop  offset="1" style="stop-color:#FA8044"/>
</linearGradient>
<ellipse fill="url(#SVGID_4_)" stroke="#333435" stroke-width="2.2515" cx="290.639" cy="225.947" rx="89.401" ry="37.559"/>
<g>
	<path fill="#333435" d="M249.233,244.669c-0.287,1.017-0.521,2.023-0.577,2.755l-2.564-0.723l0.144-1.306l-0.069-0.02
		c-0.917,0.688-2.271,0.98-3.75,0.563c-2.264-0.638-3.073-2.636-2.59-4.346c0.794-2.818,3.723-3.564,7.875-2.369l0.052-0.186
		c0.208-0.738,0.253-2.047-1.733-2.607c-1.109-0.312-2.362-0.292-3.261-0.021l-0.034-2.004c0.975-0.274,2.567-0.35,4.346,0.152
		c3.604,1.016,3.999,3.596,3.303,6.067L249.233,244.669z M247.249,241.093c-2.004-0.59-4.038-0.715-4.52,0.995
		c-0.313,1.109,0.26,1.818,1.162,2.072c1.155,0.326,2.172-0.186,2.677-0.916c0.128-0.188,0.187-0.396,0.245-0.604L247.249,241.093z"
		/>
	<path fill="#333435" d="M256.124,237.385l-0.284,5.431c-0.062,1.28-0.152,2.575-0.29,3.858l0.046,0.013
		c0.577-1.159,1.297-2.302,1.923-3.372l2.924-4.713l2.31,0.651l0.003,5.388c-0.024,1.414-0.069,2.724-0.161,4.02l0.046,0.013
		c0.507-1.179,1.129-2.325,1.801-3.557l2.654-4.639l2.795,0.788l-6.706,10.254l-2.634-0.742l-0.05-4.952
		c-0.015-1.276,0.031-2.41,0.161-3.845l-0.046-0.013c-0.645,1.313-1.234,2.346-1.871,3.362l-2.721,4.171l-2.657-0.749l-0.155-12.188
		L256.124,237.385z"/>
	<path fill="#333435" d="M273.164,247.523l0.046,0.014c0.401-0.361,0.861-0.756,1.249-1.069l3.771-2.853l3.419,0.964l-5.478,3.419
		l2.884,7.994l-3.488-0.983l-1.834-5.878l-1.267,0.865l-1.081,3.834l-2.842-0.801l4.624-16.402l2.842,0.801L273.164,247.523z"/>
</g>
<g>
	<path fill="#333435" d="M239.724,215.914l-5.171,1.305l1.018,4.031l5.782-1.459l0.519,2.056l-8.285,2.091l-3.464-13.721l7.98-2.014
		l0.519,2.056l-5.476,1.382l0.894,3.542l5.171-1.305L239.724,215.914z"/>
	<path fill="#333435" d="M242.213,214.354c-0.288-1.14-0.57-2.086-0.827-2.931l2.138-0.54l0.492,1.435l0.061-0.015
		c0.273-0.893,0.938-2.034,2.628-2.461c1.303-0.329,2.506,0.147,3.21,1.138l0.041-0.01c0.207-0.637,0.512-1.146,0.888-1.545
		c0.473-0.53,1.052-0.894,1.887-1.104c1.629-0.411,3.581,0.287,4.382,3.463l1.476,5.843l-2.443,0.617l-1.382-5.476
		c-0.416-1.649-1.233-2.482-2.434-2.179c-0.855,0.216-1.333,0.986-1.418,1.765c-0.024,0.245,0.018,0.581,0.089,0.866l1.501,5.944
		l-2.443,0.616l-1.449-5.74c-0.35-1.385-1.146-2.223-2.306-1.931c-0.937,0.237-1.383,1.129-1.458,1.862
		c-0.015,0.285,0.018,0.581,0.089,0.866l1.48,5.863l-2.443,0.617L242.213,214.354z"/>
	<path fill="#333435" d="M268.33,212.634c0.227,0.896,0.488,1.761,0.765,2.34l-2.26,0.571l-0.461-1.053l-0.062,0.016
		c-0.395,0.922-1.295,1.734-2.598,2.063c-1.994,0.504-3.479-0.66-3.859-2.166c-0.627-2.483,1.269-4.326,4.938-5.23l-0.041-0.163
		c-0.164-0.651-0.701-1.664-2.451-1.222c-0.979,0.247-1.918,0.809-2.482,1.406l-0.9-1.505c0.62-0.633,1.795-1.384,3.362-1.78
		c3.176-0.802,4.601,0.982,5.15,3.161L268.33,212.634z M265.266,210.787c-1.776,0.427-3.373,1.22-2.993,2.726
		c0.247,0.977,0.991,1.266,1.784,1.066c1.019-0.257,1.566-1.089,1.631-1.863c0.015-0.199-0.031-0.382-0.078-0.565L265.266,210.787z"
		/>
	<path fill="#333435" d="M278.79,212.203c-0.468,0.378-1.438,0.904-2.681,1.218c-3.095,0.781-5.613-0.705-6.389-3.779
		c-0.751-2.972,0.704-5.786,4.186-6.665c0.916-0.231,1.903-0.264,2.535-0.164l0.03,2.006c-0.458-0.101-1.095-0.135-1.991,0.091
		c-1.913,0.483-2.699,2.175-2.221,3.982c0.514,2.036,2.13,2.862,3.84,2.431c0.854-0.216,1.439-0.559,1.877-0.885L278.79,212.203z"/>
	<path fill="#333435" d="M280.034,209.745c0.637,0.208,1.813,0.322,2.709,0.096c1.1-0.277,1.47-0.869,1.306-1.521
		c-0.17-0.672-0.658-0.895-1.993-1.034c-2.099-0.163-3.16-1.021-3.458-2.202c-0.441-1.751,0.664-3.459,2.965-4.04
		c1.1-0.277,2.123-0.254,2.796-0.078l-0.067,1.879c-0.469-0.142-1.365-0.262-2.24-0.041c-0.896,0.226-1.271,0.798-1.117,1.408
		c0.159,0.631,0.699,0.798,2.08,0.947c1.971,0.174,3.016,0.885,3.406,2.345c0.457,1.812-0.618,3.469-3.244,4.132
		c-1.201,0.303-2.353,0.29-3.188,0.068L280.034,209.745z"/>
</g>
<g>
	<path fill="#333435" d="M282.358,233.257c0.725,0.248,2.068,0.397,3.096,0.153c1.261-0.299,1.693-0.97,1.516-1.717
		c-0.183-0.771-0.738-1.033-2.262-1.214c-2.396-0.22-3.596-1.218-3.917-2.573c-0.478-2.008,0.814-3.943,3.453-4.57
		c1.261-0.3,2.431-0.257,3.197-0.044l-0.106,2.147c-0.534-0.169-1.558-0.321-2.561-0.083c-1.028,0.244-1.467,0.891-1.301,1.592
		c0.173,0.724,0.788,0.923,2.363,1.116c2.25,0.23,3.434,1.059,3.856,2.735c0.494,2.078-0.762,3.956-3.774,4.671
		c-1.378,0.328-2.693,0.295-3.645,0.027L282.358,233.257z"/>
	<path fill="#333435" d="M293.716,228.215c0.558,2.039,2.356,2.548,4.201,2.11c1.331-0.316,2.216-0.748,3.03-1.263l0.887,1.862
		c-0.881,0.653-2.163,1.278-3.797,1.667c-3.69,0.876-6.4-0.873-7.228-4.352c-0.749-3.152,0.462-6.573,4.104-7.439
		c3.689-0.876,5.625,1.871,6.219,4.369c0.127,0.537,0.181,0.969,0.195,1.236L293.716,228.215z M298.236,225.02
		c-0.226-1.057-1.104-2.673-3.019-2.218c-1.775,0.421-2.139,2.21-1.979,3.406L298.236,225.02z"/>
	<path fill="#333435" d="M311.438,211.645l3.18,13.381c0.276,1.167,0.623,2.418,0.853,3.177l-2.545,0.605l-0.567-1.765l-0.047,0.011
		c-0.377,1.422-1.566,2.543-3.201,2.932c-2.732,0.649-5.43-1.152-6.262-4.655c-0.929-3.801,0.915-6.632,3.648-7.281
		c1.563-0.372,2.835-0.008,3.548,0.711l0.047-0.011l-1.525-6.422L311.438,211.645z M310.929,222.275
		c-0.056-0.234-0.151-0.532-0.253-0.754c-0.518-1.037-1.645-1.731-2.953-1.42c-1.844,0.438-2.483,2.317-1.984,4.418
		c0.5,2.102,1.888,3.375,3.709,2.943c1.168-0.277,2.007-1.315,1.993-2.62c0.009-0.274-0.034-0.56-0.106-0.863L310.929,222.275z"/>
</g>
<g>
	<path fill="#333435" d="M327.999,203.631l-0.154,6.223c-0.021,1.085-0.102,2.048-0.213,3.025l0.067,0.023
		c0.52-0.836,1.069-1.61,1.71-2.505l3.714-4.986l2.925,1.016l-8.053,9.576l-2.743-0.953l-0.269-12.467L327.999,203.631z"/>
	<path fill="#333435" d="M333.911,218.059l3.836-11.042l2.789,0.969l-3.836,11.042L333.911,218.059z M341.788,204.966
		c-0.283,0.815-1.131,1.283-2.106,0.944c-0.93-0.323-1.306-1.216-1.022-2.032c0.3-0.861,1.163-1.298,2.093-0.975
		C341.704,203.233,342.065,204.097,341.788,204.966z"/>
</g>
<g>
	<path fill="#333435" d="M321.539,234.165l2.76-1.049l6.055,15.93l-2.76,1.049L321.539,234.165z"/>
	<path fill="#333435" d="M333.529,242.473c0.817,1.949,2.667,2.222,4.439,1.548c1.279-0.486,2.1-1.028,2.842-1.645l1.12,1.731
		c-0.789,0.762-1.979,1.548-3.55,2.145c-3.545,1.348-6.459-0.036-7.729-3.379c-1.151-3.029-0.395-6.577,3.105-7.907
		c3.545-1.348,5.82,1.126,6.732,3.526c0.196,0.516,0.305,0.937,0.354,1.2L333.529,242.473z M337.596,238.719
		c-0.361-1.019-1.441-2.509-3.28-1.81c-1.705,0.648-1.835,2.47-1.521,3.634L337.596,238.719z"/>
	<path fill="#333435" d="M342.442,231.947l2.086,1.569c0.581,0.447,1.1,0.866,1.627,1.308l0.044-0.018
		c0.085-0.725,0.186-1.405,0.309-2.094l0.444-2.48l3.006-1.143l-1.661,6.64l5.882,4.261l-3.141,1.194l-2.151-1.673
		c-0.581-0.447-1.116-0.911-1.661-1.397l-0.044,0.018c-0.076,0.747-0.208,1.414-0.313,2.147l-0.43,2.654l-3.051,1.16l1.676-7.005
		l-5.695-3.972L342.442,231.947z"/>
</g>
<linearGradient id="SVGID_5_" gradientUnits="userSpaceOnUse" x1="290.6387" y1="154.0488" x2="290.6387" y2="94.7734">
	<stop  offset="0" style="stop-color:#FAB08C"/>
	<stop  offset="1" style="stop-color:#FA8044"/>
</linearGradient>
<ellipse fill="url(#SVGID_5_)" stroke="#333435" stroke-width="2" cx="290.639" cy="124.411" rx="89.401" ry="29.638"/>
<g>
	<path fill="#333435" d="M281.148,126.438c0.072,2.112,1.704,3.024,3.6,3.024c1.368,0,2.328-0.216,3.24-0.528l0.432,2.016
		c-1.008,0.432-2.4,0.744-4.08,0.744c-3.792,0-6.025-2.329-6.025-5.905c0-3.24,1.968-6.289,5.713-6.289
		c3.792,0,5.04,3.12,5.04,5.688c0,0.552-0.048,0.984-0.096,1.248H281.148z M286.284,124.375c0.024-1.08-0.456-2.856-2.424-2.856
		c-1.824,0-2.592,1.656-2.712,2.856H286.284z"/>
	<path fill="#333435" d="M302.22,114.414v13.753c0,1.2,0.048,2.496,0.096,3.288H299.7l-0.144-1.848h-0.048
		c-0.696,1.296-2.112,2.112-3.792,2.112c-2.808,0-5.017-2.376-5.017-5.977c-0.024-3.913,2.424-6.241,5.233-6.241
		c1.608,0,2.76,0.648,3.288,1.512h0.048v-6.601H302.22z M299.268,124.639c0-0.24-0.024-0.552-0.072-0.792
		c-0.264-1.128-1.2-2.064-2.544-2.064c-1.896,0-2.952,1.68-2.952,3.84s1.056,3.72,2.928,3.72c1.2,0,2.256-0.816,2.544-2.088
		c0.072-0.264,0.096-0.552,0.096-0.864V124.639z"/>
</g>
<g>
	<path fill="#333435" d="M404.922,114.76h1.722l-1.302,6.887l0.084-0.021c0.504-0.588,0.966-1.092,1.406-1.575l4.977-5.291h2.184
		l-5.963,6.089l3.633,8.062h-1.891l-3.086-6.95l-1.701,1.575l-1.028,5.375h-1.722L404.922,114.76z"/>
	<path fill="#333435" d="M420.147,128.344c-0.756,0.42-1.995,0.798-3.359,0.798c-2.688,0-3.863-1.848-3.863-4.094
		c0-3.065,2.268-6.53,5.543-6.53c1.932,0,2.98,1.155,2.98,2.625c0,2.667-3.002,3.359-6.76,3.296
		c-0.084,0.441-0.021,1.386,0.209,1.932c0.399,0.924,1.219,1.365,2.268,1.365c1.197,0,2.1-0.357,2.73-0.693L420.147,128.344z
		 M418.215,119.883c-1.659,0-2.898,1.617-3.339,3.212c2.751,0.042,4.892-0.336,4.892-1.932
		C419.768,120.345,419.139,119.883,418.215,119.883z"/>
	<path fill="#333435" d="M422.352,128.911l1.344-7.202c0.231-1.134,0.379-2.121,0.483-2.96h1.554l-0.252,1.995h0.042
		c0.903-1.428,2.288-2.226,3.759-2.226c1.217,0,2.582,0.693,2.582,2.813c0,0.462-0.084,1.092-0.189,1.638l-1.133,5.942h-1.723
		l1.113-5.879c0.062-0.399,0.126-0.861,0.126-1.302c0-1.008-0.399-1.764-1.596-1.764c-1.239,0-3.003,1.491-3.464,4.01l-0.924,4.934
		H422.352z"/>
	<path fill="#333435" d="M442.281,116.271h-4.136l0.293-1.512h10.037l-0.295,1.512h-4.156l-2.395,12.64h-1.742L442.281,116.271z"/>
	<path fill="#333435" d="M447.258,128.911l2.835-14.907h1.743l-1.26,6.53h0.041c0.861-1.239,2.1-2.016,3.633-2.016
		c1.154,0,2.52,0.693,2.52,2.729c0,0.525-0.062,1.197-0.168,1.701l-1.134,5.963h-1.743l1.135-5.879
		c0.062-0.357,0.125-0.84,0.125-1.407c0-0.924-0.44-1.659-1.574-1.659c-1.344,0-3.045,1.575-3.465,3.842l-0.944,5.102H447.258z"/>
	<path fill="#333435" d="M468.236,122.738c0,3.149-2.226,6.404-5.647,6.404c-2.541,0-3.969-1.89-3.969-4.178
		c0-3.359,2.33-6.446,5.627-6.446C466.997,118.518,468.236,120.597,468.236,122.738z M460.425,124.901
		c0,1.659,0.924,2.855,2.394,2.855c2.058,0,3.611-2.646,3.611-5.018c0-1.176-0.546-2.834-2.373-2.834
		C461.874,119.904,460.425,122.57,460.425,124.901z"/>
	<path fill="#333435" d="M469.456,128.911l1.344-7.202c0.209-1.134,0.356-2.121,0.461-2.96h1.533l-0.252,1.911h0.042
		c0.944-1.428,2.226-2.142,3.569-2.142c1.554,0,2.289,0.987,2.373,2.268c0.902-1.47,2.204-2.247,3.716-2.268
		c1.176,0,2.478,0.756,2.478,2.667c0,0.462-0.062,1.155-0.168,1.722l-1.134,6.005h-1.7l1.092-5.858
		c0.084-0.399,0.146-0.903,0.146-1.323c0-1.071-0.398-1.764-1.533-1.764c-1.26,0-2.771,1.47-3.191,3.737l-0.965,5.207h-1.68
		l1.133-5.963c0.084-0.462,0.127-0.84,0.127-1.239c0-0.861-0.231-1.743-1.512-1.743c-1.26,0-2.855,1.68-3.255,3.842l-0.924,5.102
		H469.456z"/>
	<path fill="#333435" d="M485.5,133.068l2.036-10.708c0.231-1.239,0.441-2.604,0.567-3.632h1.596l-0.272,1.932h0.041
		c0.903-1.344,2.247-2.142,3.654-2.142c2.184,0,3.107,1.806,3.107,3.674c0,3.59-2.562,6.95-5.942,6.95
		c-1.071,0-1.784-0.231-2.184-0.462h-0.042l-0.818,4.388H485.5z M488.355,127.21c0.462,0.357,1.112,0.567,1.952,0.567
		c2.247,0,4.115-2.792,4.115-5.459c0-1.071-0.461-2.352-1.952-2.352c-1.364,0-3.065,1.554-3.591,4.409L488.355,127.21z"/>
	<path fill="#333435" d="M497.532,127.147c0.483,0.294,1.344,0.63,2.184,0.63c1.176,0,1.932-0.756,1.932-1.659
		c0-0.798-0.356-1.281-1.428-1.869c-1.176-0.651-1.826-1.554-1.826-2.604c0-1.764,1.533-3.128,3.674-3.128
		c0.924,0,1.743,0.252,2.121,0.504l-0.482,1.323c-0.357-0.21-1.008-0.462-1.764-0.462c-1.051,0-1.807,0.651-1.807,1.533
		c0,0.735,0.483,1.197,1.407,1.701c1.134,0.63,1.89,1.533,1.89,2.667c0,2.142-1.722,3.338-3.863,3.338
		c-1.092-0.021-2.078-0.336-2.541-0.693L497.532,127.147z"/>
	<path fill="#333435" d="M515.023,122.738c0,3.149-2.226,6.404-5.647,6.404c-2.541,0-3.969-1.89-3.969-4.178
		c0-3.359,2.33-6.446,5.627-6.446C513.784,118.518,515.023,120.597,515.023,122.738z M507.212,124.901
		c0,1.659,0.924,2.855,2.394,2.855c2.058,0,3.611-2.646,3.611-5.018c0-1.176-0.546-2.834-2.373-2.834
		C508.661,119.904,507.212,122.57,507.212,124.901z"/>
	<path fill="#333435" d="M516.243,128.911l1.344-7.202c0.23-1.134,0.378-2.121,0.482-2.96h1.555l-0.252,1.995h0.041
		c0.903-1.428,2.289-2.226,3.759-2.226c1.218,0,2.583,0.693,2.583,2.813c0,0.462-0.084,1.092-0.189,1.638l-1.134,5.942h-1.722
		l1.113-5.879c0.062-0.399,0.125-0.861,0.125-1.302c0-1.008-0.398-1.764-1.596-1.764c-1.238,0-3.002,1.491-3.464,4.01l-0.924,4.934
		H516.243z"/>
</g>
<g>
	<path fill="#808080" d="M9.658,123.138H9.623l-2.233,1.062l-0.45-2.053l3.115-1.44h2.25v11.704H9.658V123.138z"/>
	<path fill="#808080" d="M17.001,130.449c0.36,0.036,0.648,0.018,1.188,0c0.846-0.054,1.692-0.288,2.305-0.72
		c0.774-0.522,1.278-1.296,1.476-2.179l-0.036-0.018c-0.522,0.54-1.296,0.846-2.359,0.846c-1.98,0-3.637-1.369-3.637-3.655
		s1.836-4.213,4.412-4.213c3.007,0,4.429,2.305,4.429,5.042c0,2.449-0.774,4.213-2.053,5.401c-1.116,1.008-2.665,1.548-4.483,1.621
		c-0.45,0.036-0.936,0.018-1.242,0V130.449z M18.658,124.561c0,1.008,0.558,1.872,1.657,1.872c0.756,0,1.278-0.342,1.53-0.756
		c0.09-0.18,0.126-0.36,0.126-0.702c0.018-1.243-0.45-2.467-1.729-2.467C19.324,122.508,18.658,123.336,18.658,124.561z"/>
	<path fill="#808080" d="M33.617,122.652c-0.306-0.018-0.63,0-1.062,0.036c-2.431,0.198-3.511,1.44-3.817,2.791h0.054
		c0.576-0.576,1.405-0.918,2.485-0.918c1.963,0,3.619,1.386,3.619,3.817c0,2.323-1.783,4.231-4.303,4.231
		c-3.133,0-4.664-2.323-4.664-5.114c0-2.197,0.811-4.033,2.089-5.222c1.152-1.062,2.683-1.62,4.501-1.71
		c0.504-0.054,0.847-0.036,1.099-0.018V122.652z M32.123,128.522c0-1.08-0.576-2.017-1.747-2.017c-0.738,0-1.35,0.45-1.603,1.026
		c-0.09,0.162-0.126,0.378-0.126,0.702c0.054,1.242,0.648,2.359,1.909,2.359C31.511,130.593,32.123,129.71,32.123,128.522z"/>
	<path fill="#808080" d="M38.044,126.379c-1.135-0.594-1.693-1.548-1.693-2.575c0-1.981,1.783-3.295,4.124-3.295
		c2.737,0,3.871,1.584,3.871,3.007c0,1.008-0.54,1.999-1.71,2.575v0.054c1.152,0.433,2.161,1.405,2.161,2.899
		c0,2.125-1.783,3.565-4.501,3.565c-2.971,0-4.339-1.675-4.339-3.259c0-1.404,0.81-2.376,2.089-2.935V126.379z M42.005,129.26
		c0-1.026-0.774-1.639-1.836-1.927c-0.9,0.252-1.422,0.9-1.422,1.747c-0.018,0.846,0.63,1.639,1.656,1.639
		C41.356,130.719,42.005,130.088,42.005,129.26z M38.944,123.714c0,0.792,0.702,1.296,1.639,1.584
		c0.63-0.18,1.188-0.756,1.188-1.476c0-0.738-0.415-1.458-1.422-1.458C39.412,122.364,38.944,122.994,38.944,123.714z"/>
</g>
<line fill="none" stroke="#4D4D4D" stroke-width="5" x1="290.639" y1="60.275" x2="290.639" y2="94.773"/>
<linearGradient id="SVGID_6_" gradientUnits="userSpaceOnUse" x1="290.6387" y1="60.2754" x2="290.6387" y2="1">
	<stop  offset="0" style="stop-color:#FAB08C"/>
	<stop  offset="1" style="stop-color:#FA8044"/>
</linearGradient>
<ellipse fill="url(#SVGID_6_)" stroke="#333435" stroke-width="2" cx="290.639" cy="30.638" rx="89.401" ry="29.638"/>
<g>
	<path fill="#333435" d="M227.94,21.744c1.128-0.216,2.76-0.36,4.464-0.36c2.328,0,3.888,0.384,4.993,1.296
		c0.888,0.744,1.392,1.873,1.392,3.265c0,2.088-1.417,3.504-2.953,4.032v0.072c1.176,0.432,1.873,1.56,2.256,3.121
		c0.528,2.016,0.96,3.888,1.272,4.512h-3.024c-0.24-0.48-0.648-1.8-1.08-3.816c-0.48-2.112-1.224-2.784-2.904-2.832h-1.488v6.648
		h-2.928V21.744z M230.869,28.873h1.752c1.992,0,3.216-1.056,3.216-2.665c0-1.752-1.224-2.592-3.144-2.592
		c-0.936,0-1.536,0.072-1.824,0.144V28.873z"/>
	<path fill="#333435" d="M243.636,32.665c0.072,2.112,1.704,3.024,3.6,3.024c1.368,0,2.328-0.216,3.24-0.528l0.432,2.016
		c-1.008,0.432-2.4,0.744-4.08,0.744c-3.792,0-6.025-2.329-6.025-5.905c0-3.24,1.968-6.289,5.713-6.289
		c3.792,0,5.04,3.12,5.04,5.688c0,0.552-0.048,0.984-0.096,1.248H243.636z M248.772,30.601c0.024-1.08-0.456-2.856-2.424-2.856
		c-1.824,0-2.592,1.656-2.712,2.856H248.772z"/>
	<path fill="#333435" d="M264.517,35.978c0,2.448-0.504,4.2-1.728,5.304c-1.2,1.08-2.904,1.417-4.512,1.417
		c-1.488,0-3.072-0.336-4.081-0.936l0.648-2.232c0.744,0.432,1.992,0.888,3.408,0.888c1.92,0,3.36-1.008,3.36-3.528v-1.008h-0.048
		c-0.672,1.032-1.848,1.729-3.408,1.729c-2.904,0-4.969-2.4-4.969-5.713c0-3.84,2.497-6.168,5.305-6.168
		c1.8,0,2.832,0.864,3.384,1.824h0.048l0.12-1.56h2.568c-0.048,0.792-0.096,1.752-0.096,3.36V35.978z M261.564,30.673
		c0-0.288-0.024-0.552-0.096-0.792c-0.312-1.08-1.152-1.896-2.4-1.896c-1.656,0-2.88,1.44-2.88,3.816c0,1.992,1.008,3.6,2.856,3.6
		c1.104,0,2.064-0.72,2.4-1.8c0.096-0.288,0.12-0.696,0.12-1.032V30.673z"/>
	<path fill="#333435" d="M278.148,34.177c0,1.392,0.048,2.544,0.096,3.504h-2.568l-0.144-1.752h-0.072
		c-0.504,0.816-1.656,2.016-3.769,2.016c-2.112,0-4.056-1.272-4.056-5.088v-6.865h2.952v6.36c0,1.944,0.624,3.192,2.184,3.192
		c1.2,0,1.968-0.816,2.256-1.584c0.12-0.24,0.168-0.576,0.168-0.912v-7.057h2.952V34.177z"/>
	<path fill="#333435" d="M281.339,20.64h2.953v17.042h-2.953V20.64z"/>
	<path fill="#333435" d="M296.58,34.874c0,1.056,0.048,2.088,0.192,2.808h-2.665l-0.216-1.296h-0.072
		c-0.696,0.912-1.92,1.56-3.456,1.56c-2.352,0-3.672-1.704-3.672-3.48c0-2.928,2.616-4.44,6.937-4.417v-0.192
		c0-0.768-0.312-2.04-2.376-2.04c-1.152,0-2.353,0.36-3.145,0.864l-0.576-1.92c0.864-0.528,2.376-1.032,4.225-1.032
		c3.744,0,4.824,2.376,4.824,4.944V34.874z M293.7,31.969c-2.088-0.024-4.081,0.408-4.081,2.184c0,1.152,0.744,1.68,1.68,1.68
		c1.2,0,2.04-0.768,2.328-1.608c0.072-0.216,0.072-0.432,0.072-0.648V31.969z"/>
	<path fill="#333435" d="M299.699,29.761c0-1.584-0.024-2.736-0.096-3.768h2.544l0.12,2.208h0.072
		c0.576-1.632,1.944-2.472,3.216-2.472c0.288,0,0.456,0.024,0.696,0.072v2.76c-0.264-0.048-0.528-0.072-0.888-0.072
		c-1.392,0-2.376,0.888-2.64,2.232c-0.048,0.264-0.072,0.576-0.072,0.888v6.073h-2.953V29.761z"/>
	<path fill="#333435" d="M313.282,34.465c0.936,0.552,2.4,1.032,3.912,1.032c1.872,0,2.928-0.888,2.928-2.208
		c0-1.224-0.816-1.944-2.856-2.688c-2.688-0.96-4.393-2.376-4.393-4.705c0-2.664,2.208-4.656,5.736-4.656
		c1.752,0,3.024,0.384,3.865,0.816l-0.696,2.376c-0.6-0.312-1.728-0.768-3.24-0.768c-1.872,0-2.664,0.984-2.664,1.944
		c0,1.249,0.936,1.824,3.096,2.665c2.808,1.056,4.152,2.472,4.152,4.8c0,2.616-1.968,4.873-6.121,4.873
		c-1.728,0-3.504-0.48-4.393-1.032L313.282,34.465z"/>
	<path fill="#333435" d="M327.898,32.665c0.072,2.112,1.704,3.024,3.6,3.024c1.368,0,2.329-0.216,3.24-0.528l0.432,2.016
		c-1.008,0.432-2.4,0.744-4.08,0.744c-3.792,0-6.025-2.329-6.025-5.905c0-3.24,1.968-6.289,5.713-6.289
		c3.792,0,5.04,3.12,5.04,5.688c0,0.552-0.048,0.984-0.096,1.248H327.898z M333.035,30.601c0.024-1.08-0.456-2.856-2.424-2.856
		c-1.824,0-2.592,1.656-2.712,2.856H333.035z"/>
	<path fill="#333435" d="M341.578,22.992v3h2.809v2.208h-2.809v5.161c0,1.44,0.384,2.16,1.512,2.16c0.528,0,0.816-0.024,1.152-0.12
		l0.048,2.232c-0.432,0.168-1.224,0.312-2.136,0.312c-1.104,0-1.992-0.36-2.544-0.96c-0.648-0.672-0.937-1.752-0.937-3.288v-5.497
		h-1.656v-2.208h1.656v-2.184L341.578,22.992z"/>
	<path fill="#333435" d="M346.498,34.945c0.648,0.408,1.92,0.864,2.976,0.864c1.296,0,1.872-0.552,1.872-1.32
		c0-0.792-0.48-1.176-1.92-1.704c-2.28-0.768-3.216-2.016-3.216-3.408c0-2.064,1.704-3.648,4.416-3.648
		c1.296,0,2.424,0.312,3.121,0.696l-0.6,2.064c-0.48-0.288-1.44-0.672-2.472-0.672c-1.056,0-1.632,0.528-1.632,1.248
		c0,0.744,0.552,1.08,2.04,1.632c2.136,0.744,3.097,1.824,3.121,3.552c0,2.136-1.656,3.672-4.752,3.672
		c-1.416,0-2.688-0.336-3.552-0.816L346.498,34.945z"/>
</g>
<g>
	<path fill="#333435" d="M404.874,35.666c0.777,0.525,1.826,0.903,3.002,0.903c1.596,0,3.066-0.945,3.066-2.646
		c0-1.05-0.588-1.848-2.079-2.646c-1.806-0.987-2.813-2.121-2.813-3.632c0-2.541,2.184-4.157,4.787-4.157
		c1.386,0,2.414,0.399,2.897,0.735l-0.63,1.428c-0.441-0.273-1.322-0.672-2.457-0.672c-1.742,0-2.792,1.155-2.792,2.31
		s0.714,1.806,2.204,2.625c1.743,0.945,2.688,2.058,2.688,3.8c0,2.436-1.91,4.367-5.102,4.367c-1.406-0.021-2.813-0.462-3.401-0.987
		L404.874,35.666z"/>
	<path fill="#333435" d="M418.858,25.251l-0.461,2.436h2.436l-0.273,1.365h-2.436l-0.924,4.934c-0.126,0.567-0.21,1.092-0.21,1.617
		c0,0.609,0.294,0.987,0.966,0.987c0.314,0,0.588-0.021,0.818-0.084l-0.084,1.365c-0.314,0.126-0.84,0.189-1.344,0.189
		c-1.532,0-2.141-0.924-2.141-1.974c0-0.588,0.084-1.155,0.23-1.89l0.986-5.144h-1.448l0.252-1.365h1.448l0.357-1.89L418.858,25.251
		z"/>
	<path fill="#333435" d="M428.182,37.282c-0.756,0.42-1.995,0.798-3.359,0.798c-2.688,0-3.863-1.848-3.863-4.094
		c0-3.065,2.268-6.53,5.543-6.53c1.932,0,2.98,1.155,2.98,2.625c0,2.667-3.002,3.359-6.76,3.296
		c-0.084,0.441-0.021,1.386,0.209,1.932c0.399,0.924,1.219,1.365,2.268,1.365c1.197,0,2.1-0.357,2.73-0.693L428.182,37.282z
		 M426.25,28.821c-1.659,0-2.898,1.617-3.339,3.212c2.751,0.042,4.892-0.336,4.892-1.932
		C427.803,29.283,427.174,28.821,426.25,28.821z"/>
	<path fill="#333435" d="M429.463,42.006l2.037-10.708c0.23-1.239,0.441-2.604,0.566-3.632h1.596l-0.272,1.932h0.042
		c0.902-1.344,2.246-2.142,3.653-2.142c2.184,0,3.107,1.806,3.107,3.674c0,3.59-2.562,6.95-5.942,6.95
		c-1.07,0-1.784-0.231-2.184-0.462h-0.041l-0.819,4.388H429.463z M432.319,36.148c0.463,0.357,1.113,0.567,1.953,0.567
		c2.246,0,4.115-2.792,4.115-5.459c0-1.071-0.462-2.352-1.953-2.352c-1.364,0-3.064,1.554-3.59,4.409L432.319,36.148z"/>
	<path fill="#333435" d="M441.391,37.849l2.835-14.907h1.743l-1.26,6.53h0.041c0.861-1.239,2.1-2.016,3.633-2.016
		c1.154,0,2.52,0.693,2.52,2.729c0,0.525-0.062,1.197-0.168,1.701l-1.134,5.963h-1.743l1.135-5.879
		c0.062-0.357,0.125-0.84,0.125-1.407c0-0.924-0.44-1.659-1.574-1.659c-1.344,0-3.045,1.575-3.465,3.842l-0.944,5.102H441.391z"/>
	<path fill="#333435" d="M459.933,37.282c-0.756,0.42-1.995,0.798-3.359,0.798c-2.688,0-3.863-1.848-3.863-4.094
		c0-3.065,2.268-6.53,5.543-6.53c1.932,0,2.981,1.155,2.981,2.625c0,2.667-3.002,3.359-6.761,3.296
		c-0.084,0.441-0.021,1.386,0.21,1.932c0.398,0.924,1.218,1.365,2.268,1.365c1.197,0,2.1-0.357,2.729-0.693L459.933,37.282z
		 M458.001,28.821c-1.659,0-2.897,1.617-3.339,3.212c2.751,0.042,4.893-0.336,4.893-1.932
		C459.555,29.283,458.925,28.821,458.001,28.821z"/>
	<path fill="#333435" d="M462.139,37.849l1.344-7.202c0.231-1.134,0.379-2.121,0.483-2.96h1.554l-0.252,1.995h0.042
		c0.903-1.428,2.288-2.226,3.759-2.226c1.217,0,2.582,0.693,2.582,2.813c0,0.462-0.084,1.092-0.189,1.638l-1.133,5.942h-1.723
		l1.113-5.879c0.062-0.399,0.126-0.861,0.126-1.302c0-1.008-0.399-1.764-1.596-1.764c-1.239,0-3.003,1.491-3.464,4.01l-0.924,4.934
		H462.139z"/>
	<path fill="#333435" d="M479.905,23.698h1.722l-1.302,6.887l0.084-0.021c0.504-0.588,0.966-1.092,1.406-1.575l4.977-5.291h2.184
		l-5.963,6.089l3.633,8.062h-1.891l-3.086-6.95l-1.701,1.575l-1.028,5.375h-1.722L479.905,23.698z"/>
	<path fill="#333435" d="M488.178,37.849l2.835-14.907h1.743l-2.835,14.907H488.178z"/>
	<path fill="#333435" d="M500.294,37.282c-0.756,0.42-1.995,0.798-3.359,0.798c-2.688,0-3.863-1.848-3.863-4.094
		c0-3.065,2.268-6.53,5.543-6.53c1.932,0,2.981,1.155,2.981,2.625c0,2.667-3.002,3.359-6.761,3.296
		c-0.084,0.441-0.021,1.386,0.21,1.932c0.398,0.924,1.218,1.365,2.268,1.365c1.197,0,2.1-0.357,2.729-0.693L500.294,37.282z
		 M498.363,28.821c-1.659,0-2.897,1.617-3.339,3.212c2.751,0.042,4.893-0.336,4.893-1.932
		C499.917,29.283,499.287,28.821,498.363,28.821z"/>
	<path fill="#333435" d="M509.807,37.282c-0.756,0.42-1.994,0.798-3.359,0.798c-2.688,0-3.863-1.848-3.863-4.094
		c0-3.065,2.268-6.53,5.543-6.53c1.932,0,2.981,1.155,2.981,2.625c0,2.667-3.003,3.359-6.761,3.296
		c-0.084,0.441-0.021,1.386,0.21,1.932c0.399,0.924,1.218,1.365,2.268,1.365c1.196,0,2.1-0.357,2.729-0.693L509.807,37.282z
		 M507.875,28.821c-1.658,0-2.897,1.617-3.338,3.212c2.75,0.042,4.892-0.336,4.892-1.932
		C509.429,29.283,508.799,28.821,507.875,28.821z"/>
	<path fill="#333435" d="M512.013,37.849l1.344-7.202c0.231-1.134,0.378-2.121,0.483-2.96h1.553l-0.252,1.995h0.043
		c0.902-1.428,2.288-2.226,3.758-2.226c1.218,0,2.582,0.693,2.582,2.813c0,0.462-0.084,1.092-0.188,1.638l-1.134,5.942h-1.722
		l1.112-5.879c0.063-0.399,0.127-0.861,0.127-1.302c0-1.008-0.399-1.764-1.596-1.764c-1.239,0-3.003,1.491-3.465,4.01l-0.924,4.934
		H512.013z"/>
	<path fill="#333435" d="M530.534,37.282c-0.756,0.42-1.994,0.798-3.359,0.798c-2.688,0-3.863-1.848-3.863-4.094
		c0-3.065,2.268-6.53,5.543-6.53c1.932,0,2.981,1.155,2.981,2.625c0,2.667-3.003,3.359-6.761,3.296
		c-0.084,0.441-0.021,1.386,0.21,1.932c0.399,0.924,1.218,1.365,2.268,1.365c1.196,0,2.1-0.357,2.729-0.693L530.534,37.282z
		 M528.602,28.821c-1.658,0-2.897,1.617-3.338,3.212c2.75,0.042,4.892-0.336,4.892-1.932
		C530.156,29.283,529.526,28.821,528.602,28.821z"/>
</g>
<g>
	<path fill="#333435" d="M563.203,8.532l-0.757,3.978h4.343l0.757-3.978h1.162l-1.793,9.441h-1.162l0.826-4.44h-4.328l-0.841,4.44
		h-1.163l1.793-9.441H563.203z"/>
	<path fill="#333435" d="M573.479,17.973c0-0.406,0.07-1.051,0.154-1.751h-0.027c-0.729,1.415-1.668,1.905-2.634,1.905
		c-1.204,0-1.947-0.953-1.947-2.241c0-2.368,1.737-4.847,4.692-4.847c0.658,0,1.359,0.112,1.836,0.252l-0.701,3.544
		c-0.225,1.177-0.309,2.381-0.279,3.138H573.479z M574.236,12.062c-0.154-0.056-0.406-0.098-0.798-0.098
		c-1.766,0-3.209,1.821-3.209,3.712c0,0.756,0.267,1.499,1.163,1.499c0.967,0,2.115-1.261,2.452-3.068L574.236,12.062z"/>
	<path fill="#333435" d="M576.362,16.796c0.321,0.196,0.896,0.42,1.456,0.42c0.784,0,1.288-0.504,1.288-1.106
		c0-0.533-0.237-0.854-0.951-1.247c-0.785-0.434-1.219-1.037-1.219-1.737c0-1.177,1.021-2.087,2.451-2.087
		c0.615,0,1.162,0.168,1.414,0.336l-0.322,0.883c-0.238-0.14-0.672-0.309-1.176-0.309c-0.701,0-1.205,0.435-1.205,1.023
		c0,0.49,0.322,0.798,0.938,1.134c0.757,0.42,1.261,1.022,1.261,1.779c0,1.429-1.148,2.227-2.578,2.227
		c-0.728-0.014-1.387-0.224-1.694-0.462L576.362,16.796z"/>
	<path fill="#333435" d="M581.512,17.973l1.892-9.945h1.163l-1.191,6.233h0.028c0.196-0.238,0.448-0.504,0.63-0.687l2.382-2.381
		h1.442l-2.955,2.788l2.018,3.992h-1.275l-1.639-3.348l-0.854,0.771l-0.49,2.577H581.512z"/>
	<path fill="#333435" d="M592.589,17.594c-0.505,0.28-1.331,0.533-2.241,0.533c-1.793,0-2.577-1.233-2.577-2.731
		c0-2.045,1.513-4.356,3.698-4.356c1.288,0,1.988,0.771,1.988,1.751c0,1.779-2.003,2.241-4.51,2.199
		c-0.057,0.294-0.014,0.924,0.14,1.289c0.267,0.616,0.812,0.911,1.513,0.911c0.799,0,1.4-0.238,1.821-0.462L592.589,17.594z
		 M591.301,11.949c-1.107,0-1.934,1.079-2.228,2.144c1.835,0.028,3.264-0.224,3.264-1.289
		C592.337,12.258,591.917,11.949,591.301,11.949z"/>
	<path fill="#333435" d="M594.057,17.973l1.891-9.945h1.162l-1.891,9.945H594.057z"/>
	<path fill="#333435" d="M597.262,17.973l1.892-9.945h1.163l-1.892,9.945H597.262z"/>
	<path fill="#333435" d="M609.572,17.665c-0.532,0.238-1.387,0.448-2.452,0.448c-2.381,0-3.823-1.499-3.823-3.908
		c0-1.779,0.714-3.474,2.003-4.552c0.98-0.827,2.186-1.261,3.572-1.261c1.036,0,1.793,0.266,2.045,0.448l-0.379,0.938
		c-0.35-0.21-1.021-0.378-1.862-0.378c-0.98,0-1.976,0.378-2.704,1.051c-0.882,0.826-1.442,2.157-1.442,3.586
		c0,1.695,0.771,3.082,2.872,3.082c0.714,0,1.498-0.14,2.017-0.406L609.572,17.665z"/>
	<path fill="#333435" d="M617.286,11.193l-0.91,4.805c-0.154,0.756-0.238,1.415-0.309,1.975h-1.036l0.168-1.275h-0.028
		c-0.602,0.883-1.484,1.429-2.381,1.429c-0.869,0-1.793-0.42-1.793-1.961c0-0.322,0.042-0.7,0.126-1.148l0.743-3.824h1.148
		l-0.715,3.782c-0.07,0.378-0.112,0.7-0.112,0.995c0,0.7,0.28,1.176,1.079,1.176c0.84,0,1.919-0.994,2.199-2.479l0.658-3.474
		H617.286z"/>
	<path fill="#333435" d="M618.052,17.973l0.826-4.37c0.154-0.883,0.267-1.779,0.337-2.41h1.021
		c-0.056,0.477-0.111,0.953-0.182,1.471h0.042c0.435-0.924,1.163-1.625,2.073-1.625c0.112,0,0.238,0.014,0.336,0.028l-0.224,1.148
		c-0.085-0.014-0.196-0.028-0.322-0.028c-1.009,0-1.905,1.219-2.199,2.802l-0.561,2.983H618.052z"/>
	<path fill="#333435" d="M622.504,17.973l0.826-4.37c0.154-0.883,0.266-1.779,0.336-2.41h1.022
		c-0.056,0.477-0.112,0.953-0.183,1.471h0.043c0.434-0.924,1.162-1.625,2.072-1.625c0.113,0,0.238,0.014,0.337,0.028l-0.224,1.148
		c-0.085-0.014-0.197-0.028-0.322-0.028c-1.01,0-1.906,1.219-2.199,2.802l-0.561,2.983H622.504z"/>
	<path fill="#333435" d="M628.707,11.193l0.673,3.642c0.154,0.784,0.238,1.289,0.308,1.793h0.028
		c0.182-0.434,0.378-0.911,0.729-1.667l1.736-3.768h1.232l-2.549,5.155c-0.729,1.457-1.414,2.647-2.34,3.558
		c-0.756,0.771-1.582,1.092-1.961,1.177l-0.294-1.009c0.294-0.098,0.784-0.28,1.247-0.644c0.462-0.351,0.952-0.896,1.316-1.569
		c0.057-0.112,0.057-0.182,0.028-0.308l-1.358-6.359H628.707z"/>
</g>
<g>
	<path fill="#333435" d="M558.31,27.042h1.163l-1.233,6.5c-0.421,2.199-1.345,3.096-3.11,3.096c-0.574,0-1.162-0.126-1.4-0.252
		l0.252-0.995c0.309,0.14,0.688,0.21,1.191,0.21c0.994,0,1.611-0.519,1.933-2.199L558.31,27.042z"/>
	<path fill="#333435" d="M566.208,32.364c0,2.101-1.485,4.272-3.769,4.272c-1.694,0-2.647-1.261-2.647-2.788
		c0-2.241,1.555-4.3,3.754-4.3C565.38,29.549,566.208,30.936,566.208,32.364z M560.997,33.807c0,1.106,0.615,1.905,1.597,1.905
		c1.372,0,2.409-1.765,2.409-3.348c0-0.785-0.364-1.891-1.583-1.891C561.963,30.473,560.997,32.252,560.997,33.807z"/>
	<path fill="#333435" d="M567.001,36.482l1.892-9.945h1.162l-0.84,4.356h0.027c0.574-0.827,1.4-1.345,2.424-1.345
		c0.77,0,1.681,0.462,1.681,1.821c0,0.35-0.042,0.798-0.112,1.135l-0.756,3.978h-1.163l0.757-3.922
		c0.041-0.238,0.084-0.561,0.084-0.939c0-0.616-0.295-1.106-1.051-1.106c-0.896,0-2.031,1.051-2.312,2.563l-0.63,3.404H567.001z"/>
	<path fill="#333435" d="M574.492,36.482l0.896-4.805c0.154-0.756,0.252-1.415,0.322-1.975h1.036l-0.168,1.331h0.028
		c0.603-0.953,1.526-1.485,2.507-1.485c0.812,0,1.723,0.462,1.723,1.877c0,0.308-0.055,0.729-0.125,1.092l-0.757,3.964h-1.148
		l0.742-3.922c0.042-0.267,0.084-0.575,0.084-0.869c0-0.672-0.267-1.177-1.064-1.177c-0.827,0-2.003,0.995-2.312,2.675l-0.616,3.292
		H574.492z"/>
	<path fill="#333435" d="M592.458,36.482l0.672-5.099c0.127-0.896,0.336-2.283,0.505-3.194h-0.042
		c-0.435,0.953-0.967,2.073-1.471,3.04l-2.816,5.197h-0.882l-0.7-5.084c-0.141-1.093-0.238-2.186-0.295-3.152h-0.041
		c-0.197,0.869-0.49,2.297-0.715,3.194l-1.289,5.099h-1.092l2.451-9.441h1.484l0.742,5.407c0.098,0.812,0.196,1.667,0.225,2.367
		h0.042c0.294-0.7,0.7-1.541,1.106-2.325l2.914-5.449h1.526l-1.204,9.441H592.458z"/>
	<path fill="#333435" d="M600.085,36.202c-0.351,0.182-1.05,0.42-1.961,0.42c-1.751,0-2.605-1.177-2.605-2.62
		c0-2.311,1.709-4.44,4.146-4.44c0.63,0,1.204,0.182,1.415,0.294l-0.337,0.924c-0.267-0.126-0.644-0.252-1.148-0.252
		c-1.765,0-2.872,1.737-2.872,3.333c0,1.093,0.574,1.807,1.682,1.807c0.7,0,1.219-0.21,1.568-0.378L600.085,36.202z"/>
	<path fill="#333435" d="M607.913,36.174c-0.532,0.238-1.387,0.448-2.451,0.448c-2.382,0-3.824-1.499-3.824-3.908
		c0-1.779,0.715-3.474,2.003-4.552c0.98-0.827,2.185-1.261,3.571-1.261c1.037,0,1.793,0.266,2.046,0.448l-0.378,0.938
		c-0.351-0.21-1.023-0.378-1.863-0.378c-0.98,0-1.975,0.378-2.703,1.051c-0.883,0.826-1.443,2.157-1.443,3.586
		c0,1.695,0.771,3.082,2.871,3.082c0.715,0,1.5-0.14,2.018-0.406L607.913,36.174z"/>
	<path fill="#333435" d="M613.498,36.482c0-0.406,0.069-1.051,0.154-1.751h-0.028c-0.729,1.415-1.667,1.905-2.633,1.905
		c-1.205,0-1.947-0.953-1.947-2.241c0-2.368,1.736-4.847,4.692-4.847c0.658,0,1.358,0.112,1.835,0.252l-0.701,3.544
		c-0.224,1.177-0.308,2.381-0.279,3.138H613.498z M614.254,30.571c-0.154-0.056-0.406-0.098-0.799-0.098
		c-1.766,0-3.208,1.821-3.208,3.712c0,0.756,0.267,1.499,1.163,1.499c0.967,0,2.115-1.261,2.451-3.068L614.254,30.571z"/>
	<path fill="#333435" d="M616.323,36.482l0.826-4.37c0.154-0.883,0.267-1.779,0.336-2.41h1.023
		c-0.057,0.477-0.112,0.953-0.183,1.471h0.042c0.435-0.924,1.162-1.625,2.073-1.625c0.112,0,0.238,0.014,0.337,0.028l-0.225,1.148
		c-0.084-0.014-0.196-0.028-0.322-0.028c-1.009,0-1.905,1.219-2.199,2.802l-0.561,2.983H616.323z"/>
	<path fill="#333435" d="M624.122,28.078l-0.308,1.625h1.625l-0.183,0.911h-1.625l-0.615,3.292
		c-0.084,0.378-0.141,0.728-0.141,1.078c0,0.406,0.196,0.659,0.645,0.659c0.21,0,0.393-0.014,0.547-0.056l-0.057,0.911
		c-0.21,0.084-0.561,0.126-0.896,0.126c-1.022,0-1.429-0.616-1.429-1.317c0-0.392,0.056-0.771,0.153-1.261l0.659-3.432h-0.967
		l0.168-0.911h0.967l0.238-1.261L624.122,28.078z"/>
	<path fill="#333435" d="M625.506,36.482l1.891-9.945h1.163l-0.841,4.356h0.028c0.574-0.827,1.401-1.345,2.423-1.345
		c0.771,0,1.682,0.462,1.682,1.821c0,0.35-0.042,0.798-0.112,1.135l-0.757,3.978h-1.162l0.756-3.922
		c0.043-0.238,0.084-0.561,0.084-0.939c0-0.616-0.293-1.106-1.05-1.106c-0.896,0-2.031,1.051-2.312,2.563l-0.631,3.404H625.506z"/>
	<path fill="#333435" d="M634.383,29.703l0.672,3.642c0.154,0.784,0.238,1.289,0.309,1.793h0.028
		c0.183-0.434,0.378-0.911,0.728-1.667l1.738-3.768h1.232l-2.55,5.155c-0.729,1.457-1.415,2.647-2.339,3.558
		c-0.757,0.771-1.583,1.092-1.961,1.177l-0.295-1.009c0.295-0.098,0.785-0.28,1.247-0.644c0.462-0.351,0.952-0.896,1.316-1.569
		c0.056-0.112,0.056-0.182,0.028-0.308l-1.359-6.359H634.383z"/>
</g>
<g>
	<path fill="#333435" d="M556.904,54.684c-0.532,0.238-1.387,0.448-2.452,0.448c-2.381,0-3.823-1.499-3.823-3.908
		c0-1.779,0.714-3.474,2.003-4.552c0.98-0.827,2.186-1.261,3.572-1.261c1.036,0,1.793,0.266,2.045,0.448l-0.379,0.938
		c-0.35-0.21-1.021-0.378-1.862-0.378c-0.98,0-1.976,0.378-2.704,1.051c-0.882,0.826-1.442,2.157-1.442,3.586
		c0,1.695,0.771,3.082,2.872,3.082c0.714,0,1.498-0.14,2.017-0.406L556.904,54.684z"/>
	<path fill="#333435" d="M558.118,54.992l1.892-9.945h1.163l-1.892,9.945H558.118z"/>
	<path fill="#333435" d="M565.806,54.992c0-0.406,0.069-1.051,0.154-1.751h-0.028c-0.729,1.415-1.667,1.905-2.633,1.905
		c-1.205,0-1.947-0.953-1.947-2.241c0-2.368,1.736-4.847,4.692-4.847c0.658,0,1.358,0.112,1.835,0.252l-0.701,3.544
		c-0.224,1.177-0.308,2.381-0.279,3.138H565.806z M566.563,49.081c-0.154-0.056-0.406-0.098-0.799-0.098
		c-1.766,0-3.208,1.821-3.208,3.712c0,0.756,0.267,1.499,1.163,1.499c0.967,0,2.115-1.261,2.451-3.068L566.563,49.081z"/>
	<path fill="#333435" d="M575.229,48.212l-0.91,4.805c-0.154,0.756-0.238,1.415-0.309,1.975h-1.036l0.168-1.275h-0.028
		c-0.602,0.883-1.484,1.429-2.381,1.429c-0.869,0-1.793-0.42-1.793-1.961c0-0.322,0.042-0.7,0.126-1.148l0.743-3.824h1.148
		l-0.715,3.782c-0.07,0.378-0.112,0.7-0.112,0.995c0,0.7,0.28,1.176,1.079,1.176c0.84,0,1.919-0.994,2.199-2.479l0.658-3.474
		H575.229z"/>
	<path fill="#333435" d="M583.182,45.047l-1.485,7.788c-0.126,0.714-0.238,1.499-0.28,2.157h-1.064l0.182-1.345h-0.027
		c-0.617,0.966-1.471,1.499-2.438,1.499c-1.316,0-2.031-1.079-2.031-2.465c0-2.41,1.793-4.623,4.188-4.623
		c0.435,0,0.91,0.098,1.204,0.238l0.603-3.25H583.182z M581.235,49.277c-0.225-0.168-0.617-0.294-1.107-0.294
		c-1.625,0-2.885,1.737-2.885,3.544c0,0.812,0.279,1.667,1.274,1.667c0.896,0,1.976-1.022,2.269-2.549L581.235,49.277z"/>
	<path fill="#333435" d="M588.219,54.614c-0.504,0.28-1.33,0.533-2.24,0.533c-1.793,0-2.578-1.233-2.578-2.731
		c0-2.045,1.514-4.356,3.698-4.356c1.288,0,1.989,0.771,1.989,1.751c0,1.779-2.003,2.241-4.511,2.199
		c-0.056,0.294-0.014,0.924,0.14,1.289c0.267,0.616,0.812,0.911,1.514,0.911c0.799,0,1.4-0.238,1.82-0.462L588.219,54.614z
		 M586.931,48.969c-1.106,0-1.933,1.079-2.228,2.144c1.836,0.028,3.264-0.224,3.264-1.289
		C587.967,49.277,587.547,48.969,586.931,48.969z"/>
	<path fill="#333435" d="M592.417,53.535c0.519,0.351,1.219,0.603,2.003,0.603c1.064,0,2.045-0.63,2.045-1.765
		c0-0.7-0.393-1.232-1.387-1.765c-1.205-0.659-1.877-1.415-1.877-2.423c0-1.695,1.457-2.773,3.193-2.773
		c0.925,0,1.611,0.266,1.934,0.49l-0.42,0.953c-0.295-0.182-0.883-0.448-1.639-0.448c-1.163,0-1.863,0.77-1.863,1.541
		s0.477,1.205,1.471,1.751c1.162,0.63,1.793,1.373,1.793,2.536c0,1.625-1.275,2.914-3.404,2.914
		c-0.938-0.014-1.877-0.309-2.27-0.659L592.417,53.535z"/>
	<path fill="#333435" d="M598.745,54.992l1.891-9.945h1.163l-0.841,4.356h0.028c0.574-0.827,1.401-1.345,2.423-1.345
		c0.771,0,1.682,0.462,1.682,1.821c0,0.35-0.042,0.798-0.112,1.135l-0.757,3.978h-1.162l0.756-3.922
		c0.043-0.238,0.084-0.561,0.084-0.939c0-0.616-0.293-1.106-1.05-1.106c-0.896,0-2.031,1.051-2.312,2.563l-0.631,3.404H598.745z"/>
	<path fill="#333435" d="M610.717,54.992c0-0.406,0.07-1.051,0.154-1.751h-0.028c-0.729,1.415-1.667,1.905-2.634,1.905
		c-1.204,0-1.947-0.953-1.947-2.241c0-2.368,1.738-4.847,4.693-4.847c0.658,0,1.358,0.112,1.835,0.252l-0.7,3.544
		c-0.225,1.177-0.309,2.381-0.28,3.138H610.717z M611.473,49.081c-0.153-0.056-0.406-0.098-0.798-0.098
		c-1.765,0-3.208,1.821-3.208,3.712c0,0.756,0.267,1.499,1.163,1.499c0.966,0,2.114-1.261,2.451-3.068L611.473,49.081z"/>
	<path fill="#333435" d="M613.543,54.992l0.896-4.805c0.153-0.756,0.252-1.415,0.322-1.975h1.036l-0.169,1.331h0.029
		c0.602-0.953,1.526-1.485,2.507-1.485c0.812,0,1.723,0.462,1.723,1.877c0,0.308-0.056,0.729-0.126,1.092l-0.756,3.964h-1.148
		l0.742-3.922c0.041-0.267,0.084-0.575,0.084-0.869c0-0.672-0.267-1.177-1.064-1.177c-0.827,0-2.004,0.995-2.312,2.675l-0.616,3.292
		H613.543z"/>
	<path fill="#333435" d="M621.018,54.992l0.896-4.805c0.154-0.756,0.252-1.415,0.322-1.975h1.037l-0.168,1.331h0.027
		c0.603-0.953,1.527-1.485,2.508-1.485c0.812,0,1.723,0.462,1.723,1.877c0,0.308-0.056,0.729-0.126,1.092l-0.757,3.964h-1.148
		l0.742-3.922c0.043-0.267,0.084-0.575,0.084-0.869c0-0.672-0.266-1.177-1.064-1.177c-0.826,0-2.002,0.995-2.311,2.675l-0.617,3.292
		H621.018z"/>
	<path fill="#333435" d="M634.995,50.874c0,2.101-1.485,4.272-3.769,4.272c-1.694,0-2.647-1.261-2.647-2.788
		c0-2.241,1.555-4.3,3.754-4.3C634.167,48.059,634.995,49.445,634.995,50.874z M629.784,52.317c0,1.106,0.615,1.905,1.597,1.905
		c1.372,0,2.409-1.765,2.409-3.348c0-0.785-0.364-1.891-1.583-1.891C630.75,48.983,629.784,50.762,629.784,52.317z"/>
	<path fill="#333435" d="M635.802,54.992l0.896-4.805c0.154-0.756,0.252-1.415,0.322-1.975h1.036l-0.168,1.331h0.028
		c0.603-0.953,1.526-1.485,2.507-1.485c0.812,0,1.723,0.462,1.723,1.877c0,0.308-0.055,0.729-0.125,1.092l-0.757,3.964h-1.148
		l0.742-3.922c0.042-0.267,0.084-0.575,0.084-0.869c0-0.672-0.267-1.177-1.064-1.177c-0.827,0-2.003,0.995-2.312,2.675l-0.616,3.292
		H635.802z"/>
</g>
<g>
	<path fill="#808080" d="M9.658,21.983H9.622l-2.233,1.062l-0.45-2.053l3.115-1.44h2.25v11.704H9.658V21.983z"/>
	<path fill="#808080" d="M17.001,29.293c0.36,0.036,0.648,0.018,1.188,0c0.846-0.054,1.692-0.288,2.305-0.72
		c0.774-0.522,1.278-1.296,1.476-2.179l-0.036-0.018c-0.522,0.54-1.296,0.846-2.359,0.846c-1.98,0-3.637-1.369-3.637-3.655
		s1.836-4.213,4.412-4.213c3.007,0,4.429,2.305,4.429,5.042c0,2.449-0.774,4.213-2.053,5.401c-1.116,1.008-2.665,1.548-4.483,1.621
		c-0.45,0.036-0.936,0.018-1.242,0V29.293z M18.657,23.406c0,1.008,0.558,1.872,1.657,1.872c0.756,0,1.278-0.342,1.53-0.756
		c0.09-0.18,0.126-0.36,0.126-0.702c0.018-1.243-0.45-2.467-1.729-2.467C19.324,21.353,18.657,22.181,18.657,23.406z"/>
	<path fill="#808080" d="M33.958,21.803h-4.537l-0.252,1.8c0.252-0.036,0.468-0.036,0.756-0.036c1.117,0,2.269,0.252,3.079,0.846
		c0.882,0.594,1.422,1.567,1.422,2.935c0,2.179-1.873,4.105-5.023,4.105c-1.422,0-2.611-0.324-3.259-0.667l0.504-2.053
		c0.504,0.252,1.566,0.576,2.629,0.576c1.134,0,2.341-0.54,2.341-1.782c0-1.207-0.955-1.945-3.295-1.945
		c-0.648,0-1.099,0.036-1.567,0.108l0.756-6.14h6.446V21.803z"/>
	<path fill="#808080" d="M43.607,21.497c-0.306-0.018-0.63,0-1.062,0.036c-2.431,0.198-3.511,1.44-3.817,2.791h0.054
		c0.576-0.576,1.405-0.918,2.485-0.918c1.963,0,3.619,1.386,3.619,3.817c0,2.323-1.783,4.231-4.303,4.231
		c-3.133,0-4.664-2.323-4.664-5.114c0-2.197,0.811-4.033,2.089-5.222c1.152-1.062,2.683-1.62,4.501-1.71
		c0.504-0.054,0.847-0.036,1.099-0.018V21.497z M42.112,27.367c0-1.08-0.576-2.017-1.747-2.017c-0.738,0-1.35,0.45-1.603,1.026
		c-0.09,0.162-0.126,0.378-0.126,0.702c0.054,1.242,0.648,2.359,1.909,2.359C41.5,29.438,42.112,28.555,42.112,27.367z"/>
</g>
</svg>
